<svg width="308" height="66" viewBox="0 0 308 66" fill="none" xmlns="http://www.w3.org/2000/svg">
<rect x="1.09766" y="0.5" width="306.077" height="65" rx="9.5" fill="#20588C" stroke="#666666"/>
<path d="M47.8943 32.408C47.8943 34.184 47.5903 35.736 46.9823 37.064C46.3903 38.376 45.5103 39.4 44.3423 40.136C43.1743 40.872 41.7263 41.24 39.9983 41.24C38.2223 41.24 36.7423 40.872 35.5583 40.136C34.3903 39.4 33.5183 38.368 32.9423 37.04C32.3663 35.712 32.0783 34.16 32.0783 32.384C32.0783 30.624 32.3663 29.088 32.9423 27.776C33.5183 26.464 34.3903 25.44 35.5583 24.704C36.7423 23.968 38.2303 23.6 40.0223 23.6C41.7343 23.6 43.1743 23.968 44.3423 24.704C45.5103 25.424 46.3903 26.448 46.9823 27.776C47.5903 29.088 47.8943 30.632 47.8943 32.408ZM34.3583 32.408C34.3583 34.568 34.8143 36.272 35.7263 37.52C36.6383 38.752 38.0623 39.368 39.9983 39.368C41.9503 39.368 43.3743 38.752 44.2703 37.52C45.1663 36.272 45.6143 34.568 45.6143 32.408C45.6143 30.248 45.1663 28.56 44.2703 27.344C43.3743 26.112 41.9583 25.496 40.0223 25.496C38.0863 25.496 36.6543 26.112 35.7263 27.344C34.8143 28.56 34.3583 30.248 34.3583 32.408ZM51.6923 41V23.864H61.8683V25.76H53.8523V31.112H56.3963C58.1083 31.112 59.4363 31.328 60.3803 31.76C61.3243 32.176 61.9803 32.752 62.3483 33.488C62.7163 34.208 62.9003 35.04 62.9003 35.984C62.9003 37.552 62.4283 38.784 61.4843 39.68C60.5403 40.56 58.9483 41 56.7083 41H51.6923ZM56.4923 39.152C58.0283 39.152 59.1083 38.896 59.7323 38.384C60.3563 37.856 60.6683 37.056 60.6683 35.984C60.6683 34.88 60.3243 34.104 59.6363 33.656C58.9483 33.208 57.7803 32.984 56.1323 32.984H53.8523V39.152H56.4923ZM70.9939 23.864C73.2339 23.864 74.8659 24.304 75.8899 25.184C76.9139 26.064 77.4259 27.304 77.4259 28.904C77.4259 29.848 77.2099 30.736 76.7779 31.568C76.3619 32.384 75.6499 33.048 74.6419 33.56C73.6499 34.072 72.2979 34.328 70.5859 34.328H68.6179V41H66.4579V23.864H70.9939ZM70.8019 25.712H68.6179V32.48H70.3459C71.9779 32.48 73.1939 32.216 73.9939 31.688C74.7939 31.16 75.1939 30.264 75.1939 29C75.1939 27.896 74.8419 27.072 74.1379 26.528C73.4339 25.984 72.3219 25.712 70.8019 25.712ZM90.5458 41L88.4818 35.696H81.6898L79.6498 41H77.4658L84.1618 23.792H86.1058L92.7778 41H90.5458ZM85.9138 28.592C85.8658 28.464 85.7858 28.232 85.6738 27.896C85.5618 27.56 85.4498 27.216 85.3378 26.864C85.2418 26.496 85.1618 26.216 85.0978 26.024C84.9858 26.52 84.8578 27.008 84.7138 27.488C84.5698 27.952 84.4498 28.32 84.3538 28.592L82.4098 33.776H87.8338L85.9138 28.592ZM98.8584 41H96.6984V25.76H91.3464V23.864H104.186V25.76H98.8584V41ZM119.874 41H117.714V33.008H108.93V41H106.77V23.864H108.93V31.112H117.714V23.864H119.874V41ZM124.559 41V23.864H126.719V31.112H129.359C130.959 31.112 132.215 31.328 133.127 31.76C134.055 32.192 134.711 32.776 135.095 33.512C135.495 34.248 135.695 35.072 135.695 35.984C135.695 37.488 135.207 38.704 134.231 39.632C133.271 40.544 131.735 41 129.623 41H124.559ZM138.335 41V23.864H140.495V41H138.335ZM129.431 39.176C130.807 39.176 131.823 38.912 132.479 38.384C133.135 37.856 133.463 37.056 133.463 35.984C133.463 34.88 133.103 34.112 132.383 33.68C131.679 33.232 130.591 33.008 129.119 33.008H126.719V39.176H129.431ZM156.849 18.536C156.737 19.736 156.329 20.648 155.625 21.272C154.937 21.88 153.833 22.184 152.313 22.184C150.745 22.184 149.633 21.88 148.977 21.272C148.337 20.664 147.977 19.752 147.897 18.536H149.865C149.945 19.4 150.169 19.984 150.537 20.288C150.921 20.576 151.529 20.72 152.361 20.72C153.097 20.72 153.673 20.568 154.089 20.264C154.521 19.944 154.777 19.368 154.857 18.536H156.849ZM145.185 23.864H147.201V33.272C147.201 33.8 147.193 34.392 147.177 35.048C147.161 35.704 147.137 36.304 147.105 36.848C147.089 37.392 147.065 37.792 147.033 38.048H147.129L156.561 23.864H158.961V41H156.945V31.688C156.945 31.096 156.953 30.464 156.969 29.792C157.001 29.12 157.033 28.504 157.065 27.944C157.097 27.384 157.121 26.984 157.137 26.744H157.041L147.585 41H145.185V23.864ZM180.906 27.872C180.906 29.04 180.538 29.968 179.802 30.656C179.066 31.328 178.082 31.76 176.85 31.952V32.048C178.29 32.24 179.386 32.688 180.138 33.392C180.89 34.096 181.266 35.016 181.266 36.152C181.266 37.656 180.69 38.88 179.538 39.824C178.386 40.768 176.658 41.24 174.354 41.24C173.426 41.24 172.538 41.168 171.69 41.024C170.858 40.896 170.082 40.656 169.362 40.304V38.336C170.114 38.688 170.93 38.968 171.81 39.176C172.706 39.368 173.546 39.464 174.33 39.464C175.866 39.464 177.026 39.176 177.81 38.6C178.61 38.024 179.01 37.208 179.01 36.152C179.01 35.064 178.546 34.272 177.618 33.776C176.69 33.28 175.394 33.032 173.73 33.032H171.282V31.232H173.61C175.306 31.232 176.57 30.952 177.402 30.392C178.25 29.816 178.674 29.048 178.674 28.088C178.674 27.224 178.354 26.56 177.714 26.096C177.074 25.632 176.242 25.4 175.218 25.4C174.146 25.4 173.25 25.536 172.53 25.808C171.826 26.08 171.138 26.432 170.466 26.864L169.434 25.4C170.106 24.904 170.93 24.488 171.906 24.152C172.898 23.8 174.01 23.624 175.242 23.624C177.098 23.624 178.506 24.024 179.466 24.824C180.426 25.624 180.906 26.64 180.906 27.872ZM189.784 23.864C191.928 23.864 193.544 24.184 194.632 24.824C195.736 25.448 196.288 26.544 196.288 28.112C196.288 29.12 196.008 29.96 195.448 30.632C194.888 31.288 194.08 31.712 193.024 31.904V32.024C193.744 32.136 194.392 32.344 194.968 32.648C195.56 32.952 196.024 33.384 196.36 33.944C196.696 34.504 196.864 35.232 196.864 36.128C196.864 37.68 196.328 38.88 195.256 39.728C194.2 40.576 192.752 41 190.912 41H184.888V23.864H189.784ZM190.216 31.16C191.688 31.16 192.696 30.928 193.24 30.464C193.784 29.984 194.056 29.28 194.056 28.352C194.056 27.408 193.72 26.736 193.048 26.336C192.392 25.92 191.336 25.712 189.88 25.712H187.048V31.16H190.216ZM187.048 32.96V39.176H190.504C192.024 39.176 193.08 38.88 193.672 38.288C194.264 37.696 194.56 36.92 194.56 35.96C194.56 35.064 194.248 34.344 193.624 33.8C193.016 33.24 191.92 32.96 190.336 32.96H187.048ZM215.449 32.408C215.449 34.184 215.145 35.736 214.537 37.064C213.945 38.376 213.065 39.4 211.897 40.136C210.729 40.872 209.281 41.24 207.553 41.24C205.777 41.24 204.297 40.872 203.113 40.136C201.945 39.4 201.073 38.368 200.497 37.04C199.921 35.712 199.633 34.16 199.633 32.384C199.633 30.624 199.921 29.088 200.497 27.776C201.073 26.464 201.945 25.44 203.113 24.704C204.297 23.968 205.785 23.6 207.577 23.6C209.289 23.6 210.729 23.968 211.897 24.704C213.065 25.424 213.945 26.448 214.537 27.776C215.145 29.088 215.449 30.632 215.449 32.408ZM201.913 32.408C201.913 34.568 202.369 36.272 203.281 37.52C204.193 38.752 205.617 39.368 207.553 39.368C209.505 39.368 210.929 38.752 211.825 37.52C212.721 36.272 213.169 34.568 213.169 32.408C213.169 30.248 212.721 28.56 211.825 27.344C210.929 26.112 209.513 25.496 207.577 25.496C205.641 25.496 204.209 26.112 203.281 27.344C202.369 28.56 201.913 30.248 201.913 32.408ZM232.351 41H230.191V33.008H221.407V41H219.247V23.864H221.407V31.112H230.191V23.864H232.351V41ZM251.988 32.408C251.988 34.184 251.684 35.736 251.076 37.064C250.484 38.376 249.604 39.4 248.436 40.136C247.268 40.872 245.82 41.24 244.092 41.24C242.316 41.24 240.836 40.872 239.652 40.136C238.484 39.4 237.612 38.368 237.036 37.04C236.46 35.712 236.172 34.16 236.172 32.384C236.172 30.624 236.46 29.088 237.036 27.776C237.612 26.464 238.484 25.44 239.652 24.704C240.836 23.968 242.324 23.6 244.116 23.6C245.828 23.6 247.268 23.968 248.436 24.704C249.604 25.424 250.484 26.448 251.076 27.776C251.684 29.088 251.988 30.632 251.988 32.408ZM238.452 32.408C238.452 34.568 238.908 36.272 239.82 37.52C240.732 38.752 242.156 39.368 244.092 39.368C246.044 39.368 247.468 38.752 248.364 37.52C249.26 36.272 249.708 34.568 249.708 32.408C249.708 30.248 249.26 28.56 248.364 27.344C247.468 26.112 246.052 25.496 244.116 25.496C242.18 25.496 240.748 26.112 239.82 27.344C238.908 28.56 238.452 30.248 238.452 32.408ZM268.29 41H265.698L257.946 32.312V41H255.786V23.864H257.946V32.168L265.506 23.864H267.954L260.514 32.192L268.29 41Z" fill="white"/>
</svg>
