<svg width="450" height="150" viewBox="0 0 450 150" fill="none" xmlns="http://www.w3.org/2000/svg">
<rect x="0.484375" width="449.505" height="150" fill="white" fill-opacity="0.9"/>
<path d="M82.4102 75.3359H80.3359V83H78.0859V65.9375H80.3359V73.4609H82.0938L88.0586 65.9375H90.8594L84.3438 74.2109L91.3398 83H88.5859L82.4102 75.3359ZM106.152 75.0195C106.152 76.6914 105.871 78.1523 105.309 79.4023C104.746 80.6445 103.949 81.5938 102.918 82.25C101.887 82.9062 100.684 83.2344 99.3086 83.2344C97.9648 83.2344 96.7734 82.9062 95.7344 82.25C94.6953 81.5859 93.8867 80.6445 93.3086 79.4258C92.7383 78.1992 92.4453 76.7812 92.4297 75.1719V73.9414C92.4297 72.3008 92.7148 70.8516 93.2852 69.5938C93.8555 68.3359 94.6602 67.375 95.6992 66.7109C96.7461 66.0391 97.9414 65.7031 99.2852 65.7031C100.652 65.7031 101.855 66.0352 102.895 66.6992C103.941 67.3555 104.746 68.3125 105.309 69.5703C105.871 70.8203 106.152 72.2773 106.152 73.9414V75.0195ZM103.914 73.918C103.914 71.8945 103.508 70.3438 102.695 69.2656C101.883 68.1797 100.746 67.6367 99.2852 67.6367C97.8633 67.6367 96.7422 68.1797 95.9219 69.2656C95.1094 70.3438 94.6914 71.8438 94.668 73.7656V75.0195C94.668 76.9805 95.0781 78.5234 95.8984 79.6484C96.7266 80.7656 97.8633 81.3242 99.3086 81.3242C100.762 81.3242 101.887 80.7969 102.684 79.7422C103.48 78.6797 103.891 77.1602 103.914 75.1836V73.918ZM122.641 83H120.379V75.1133H111.777V83H109.527V65.9375H111.777V73.2734H120.379V65.9375H122.641V83ZM142.246 87.1836H140.008V83H127.762V87.1953H125.512L125.5 81.1602H126.895C127.629 80.332 128.211 79.2227 128.641 77.832C129.078 76.4336 129.352 74.9023 129.461 73.2383L129.836 65.9375H140.043V81.1602H142.27L142.246 87.1836ZM129.461 81.1602H137.781V67.7891H132.004L131.758 72.8047C131.656 74.7656 131.395 76.4375 130.973 77.8203C130.559 79.2031 130.055 80.3164 129.461 81.1602ZM155.699 65.9375H157.949V83H155.699V69.8516L147.297 83H145.035V65.9375H147.297V79.0859L155.699 65.9375ZM162.121 65.9375H164.383V81.1602H172.797V65.9375H175.047V81.1133H176.84L176.629 87.1133H174.602V83H162.121V65.9375ZM190.363 65.9375H192.613V83H190.363V69.8516L181.961 83H179.699V65.9375H181.961V79.0859L190.363 65.9375ZM209.84 75.0195C209.84 76.6914 209.559 78.1523 208.996 79.4023C208.434 80.6445 207.637 81.5938 206.605 82.25C205.574 82.9062 204.371 83.2344 202.996 83.2344C201.652 83.2344 200.461 82.9062 199.422 82.25C198.383 81.5859 197.574 80.6445 196.996 79.4258C196.426 78.1992 196.133 76.7812 196.117 75.1719V73.9414C196.117 72.3008 196.402 70.8516 196.973 69.5938C197.543 68.3359 198.348 67.375 199.387 66.7109C200.434 66.0391 201.629 65.7031 202.973 65.7031C204.34 65.7031 205.543 66.0352 206.582 66.6992C207.629 67.3555 208.434 68.3125 208.996 69.5703C209.559 70.8203 209.84 72.2773 209.84 73.9414V75.0195ZM207.602 73.918C207.602 71.8945 207.195 70.3438 206.383 69.2656C205.57 68.1797 204.434 67.6367 202.973 67.6367C201.551 67.6367 200.43 68.1797 199.609 69.2656C198.797 70.3438 198.379 71.8438 198.355 73.7656V75.0195C198.355 76.9805 198.766 78.5234 199.586 79.6484C200.414 80.7656 201.551 81.3242 202.996 81.3242C204.449 81.3242 205.574 80.7969 206.371 79.7422C207.168 78.6797 207.578 77.1602 207.602 75.1836V73.918ZM226.328 83H224.066V75.1133H215.465V83H213.215V65.9375H215.465V73.2734H224.066V65.9375H226.328V83ZM241.082 65.9375H243.332V83H241.082V69.8516L232.68 83H230.418V65.9375H232.68V79.0859L241.082 65.9375ZM249.684 76.3203V83H247.434V65.9375H253.727C255.594 65.9375 257.055 66.4141 258.109 67.3672C259.172 68.3203 259.703 69.582 259.703 71.1523C259.703 72.8086 259.184 74.0859 258.145 74.9844C257.113 75.875 255.633 76.3203 253.703 76.3203H249.684ZM249.684 74.4805H253.727C254.93 74.4805 255.852 74.1992 256.492 73.6367C257.133 73.0664 257.453 72.2461 257.453 71.1758C257.453 70.1602 257.133 69.3477 256.492 68.7383C255.852 68.1289 254.973 67.8125 253.855 67.7891H249.684V74.4805ZM275.699 75.0195C275.699 76.6914 275.418 78.1523 274.855 79.4023C274.293 80.6445 273.496 81.5938 272.465 82.25C271.434 82.9062 270.23 83.2344 268.855 83.2344C267.512 83.2344 266.32 82.9062 265.281 82.25C264.242 81.5859 263.434 80.6445 262.855 79.4258C262.285 78.1992 261.992 76.7812 261.977 75.1719V73.9414C261.977 72.3008 262.262 70.8516 262.832 69.5938C263.402 68.3359 264.207 67.375 265.246 66.7109C266.293 66.0391 267.488 65.7031 268.832 65.7031C270.199 65.7031 271.402 66.0352 272.441 66.6992C273.488 67.3555 274.293 68.3125 274.855 69.5703C275.418 70.8203 275.699 72.2773 275.699 73.9414V75.0195ZM273.461 73.918C273.461 71.8945 273.055 70.3438 272.242 69.2656C271.43 68.1797 270.293 67.6367 268.832 67.6367C267.41 67.6367 266.289 68.1797 265.469 69.2656C264.656 70.3438 264.238 71.8438 264.215 73.7656V75.0195C264.215 76.9805 264.625 78.5234 265.445 79.6484C266.273 80.7656 267.41 81.3242 268.855 81.3242C270.309 81.3242 271.434 80.7969 272.23 79.7422C273.027 78.6797 273.438 77.1602 273.461 75.1836V73.918ZM279.074 83V65.9375H284.652C286.504 65.9375 287.895 66.3203 288.824 67.0859C289.762 67.8516 290.23 68.9844 290.23 70.4844C290.23 71.2812 290.004 71.9883 289.551 72.6055C289.098 73.2148 288.48 73.6875 287.699 74.0234C288.621 74.2812 289.348 74.7734 289.879 75.5C290.418 76.2188 290.688 77.0781 290.688 78.0781C290.688 79.6094 290.191 80.8125 289.199 81.6875C288.207 82.5625 286.805 83 284.992 83H279.074ZM281.324 75.0195V81.1602H285.039C286.086 81.1602 286.91 80.8906 287.512 80.3516C288.121 79.8047 288.426 79.0547 288.426 78.1016C288.426 76.0469 287.309 75.0195 285.074 75.0195H281.324ZM281.324 73.2148H284.723C285.707 73.2148 286.492 72.9688 287.078 72.4766C287.672 71.9844 287.969 71.3164 287.969 70.4727C287.969 69.5352 287.695 68.8555 287.148 68.4336C286.602 68.0039 285.77 67.7891 284.652 67.7891H281.324V73.2148ZM303.449 78.5469H296.301L294.695 83H292.375L298.891 65.9375H300.859L307.387 83H305.078L303.449 78.5469ZM296.98 76.6953H302.781L299.875 68.7148L296.98 76.6953ZM322.797 83H320.535V75.1133H311.934V83H309.684V65.9375H311.934V73.2734H320.535V65.9375H322.797V83ZM337.551 65.9375H339.801V83H337.551V69.8516L329.148 83H326.887V65.9375H329.148V79.0859L337.551 65.9375ZM353.547 75.1133H346.152V81.1602H354.742V83H343.902V65.9375H354.625V67.7891H346.152V73.2734H353.547V75.1133Z" fill="black"/>
<path d="M82.4102 75.3359L82.7995 75.0222L82.6494 74.8359H82.4102V75.3359ZM80.3359 75.3359V74.8359H79.8359V75.3359H80.3359ZM80.3359 83V83.5H80.8359V83H80.3359ZM78.0859 83H77.5859V83.5H78.0859V83ZM78.0859 65.9375V65.4375H77.5859V65.9375H78.0859ZM80.3359 65.9375H80.8359V65.4375H80.3359V65.9375ZM80.3359 73.4609H79.8359V73.9609H80.3359V73.4609ZM82.0938 73.4609V73.9609H82.3354L82.4855 73.7716L82.0938 73.4609ZM88.0586 65.9375V65.4375H87.8169L87.6668 65.6269L88.0586 65.9375ZM90.8594 65.9375L91.2522 66.2469L91.8896 65.4375H90.8594V65.9375ZM84.3438 74.2109L83.9509 73.9016L83.706 74.2126L83.9526 74.5223L84.3438 74.2109ZM91.3398 83V83.5H92.3769L91.731 82.6886L91.3398 83ZM88.5859 83L88.1966 83.3137L88.3467 83.5H88.5859V83ZM82.4102 74.8359H80.3359V75.8359H82.4102V74.8359ZM79.8359 75.3359V83H80.8359V75.3359H79.8359ZM80.3359 82.5H78.0859V83.5H80.3359V82.5ZM78.5859 83V65.9375H77.5859V83H78.5859ZM78.0859 66.4375H80.3359V65.4375H78.0859V66.4375ZM79.8359 65.9375V73.4609H80.8359V65.9375H79.8359ZM80.3359 73.9609H82.0938V72.9609H80.3359V73.9609ZM82.4855 73.7716L88.4504 66.2481L87.6668 65.6269L81.702 73.1503L82.4855 73.7716ZM88.0586 66.4375H90.8594V65.4375H88.0586V66.4375ZM90.4666 65.6281L83.9509 73.9016L84.7366 74.5203L91.2522 66.2469L90.4666 65.6281ZM83.9526 74.5223L90.9486 83.3114L91.731 82.6886L84.7349 73.8995L83.9526 74.5223ZM91.3398 82.5H88.5859V83.5H91.3398V82.5ZM88.9753 82.6863L82.7995 75.0222L82.0208 75.6497L88.1966 83.3137L88.9753 82.6863ZM105.309 79.4023L105.764 79.6086L105.765 79.6075L105.309 79.4023ZM95.7344 82.25L95.4651 82.6713L95.4674 82.6727L95.7344 82.25ZM93.3086 79.4258L92.8552 79.6366L92.8568 79.6401L93.3086 79.4258ZM92.4297 75.1719H91.9297L91.9297 75.1767L92.4297 75.1719ZM95.6992 66.7109L95.9685 67.1322L95.9693 67.1317L95.6992 66.7109ZM102.895 66.6992L102.625 67.1205L102.629 67.1229L102.895 66.6992ZM105.309 69.5703L104.852 69.7744L104.853 69.7755L105.309 69.5703ZM102.695 69.2656L102.295 69.5652L102.296 69.5666L102.695 69.2656ZM95.9219 69.2656L95.5229 68.9642L95.5226 68.9647L95.9219 69.2656ZM94.668 73.7656L94.168 73.7595V73.7656H94.668ZM95.8984 79.6484L95.4944 79.943L95.4968 79.9462L95.8984 79.6484ZM102.684 79.7422L103.083 80.0436L103.084 80.0422L102.684 79.7422ZM103.914 75.1836L104.414 75.1895V75.1836H103.914ZM105.652 75.0195C105.652 76.6359 105.38 78.0242 104.853 79.1972L105.765 79.6075C106.362 78.2805 106.652 76.7469 106.652 75.0195H105.652ZM104.853 79.1961C104.326 80.3604 103.59 81.23 102.65 81.8282L103.186 82.6718C104.309 81.9575 105.166 80.9287 105.764 79.6086L104.853 79.1961ZM102.65 81.8282C101.708 82.4272 100.601 82.7344 99.3086 82.7344V83.7344C100.766 83.7344 102.065 83.3853 103.186 82.6718L102.65 81.8282ZM99.3086 82.7344C98.0502 82.7344 96.9531 82.4284 96.0014 81.8273L95.4674 82.6727C96.5938 83.3841 97.8795 83.7344 99.3086 83.7344V82.7344ZM96.0036 81.8287C95.051 81.2198 94.3022 80.3537 93.7603 79.2115L92.8568 79.6401C93.4713 80.9353 94.3397 81.952 95.4651 82.6713L96.0036 81.8287ZM93.762 79.215C93.2268 78.064 92.9447 76.7185 92.9297 75.167L91.9297 75.1767C91.9459 76.844 92.2497 78.3344 92.8552 79.6366L93.762 79.215ZM92.9297 75.1719V73.9414H91.9297V75.1719H92.9297ZM92.9297 73.9414C92.9297 72.3588 93.2046 70.9821 93.7405 69.8002L92.8298 69.3873C92.2251 70.721 91.9297 72.2428 91.9297 73.9414H92.9297ZM93.7405 69.8002C94.2758 68.6196 95.0205 67.7381 95.9685 67.1322L95.43 66.2896C94.2998 67.0119 93.4351 68.0523 92.8298 69.3873L93.7405 69.8002ZM95.9693 67.1317C96.9291 66.5157 98.0291 66.2031 99.2852 66.2031V65.2031C97.8537 65.2031 96.5631 65.5624 95.4292 66.2901L95.9693 67.1317ZM99.2852 66.2031C100.568 66.2031 101.675 66.5133 102.625 67.1205L103.164 66.2779C102.036 65.557 100.737 65.2031 99.2852 65.2031V66.2031ZM102.629 67.1229C103.582 67.7205 104.325 68.5963 104.852 69.7744L105.765 69.3662C105.167 68.0287 104.3 66.9904 103.16 66.2756L102.629 67.1229ZM104.853 69.7755C105.381 70.9487 105.652 72.3333 105.652 73.9414H106.652C106.652 72.2214 106.362 70.6919 105.765 69.3651L104.853 69.7755ZM105.652 73.9414V75.0195H106.652V73.9414H105.652ZM104.414 73.918C104.414 71.8375 103.998 70.1632 103.095 68.9647L102.296 69.5666C103.018 70.5243 103.414 71.9516 103.414 73.918H104.414ZM103.096 68.9661C102.181 67.7431 100.89 67.1367 99.2852 67.1367V68.1367C100.603 68.1367 101.585 68.6163 102.295 69.5652L103.096 68.9661ZM99.2852 67.1367C97.7147 67.1367 96.4426 67.7468 95.5229 68.9642L96.3208 69.567C97.0418 68.6126 98.0118 68.1367 99.2852 68.1367V67.1367ZM95.5226 68.9647C94.6239 70.1571 94.1922 71.7748 94.168 73.7595L95.1679 73.7717C95.1906 71.9127 95.5948 70.5304 96.3212 69.5666L95.5226 68.9647ZM94.168 73.7656V75.0195H95.168V73.7656H94.168ZM94.168 75.0195C94.168 77.0444 94.5909 78.7039 95.4944 79.943L96.3024 79.3539C95.5654 78.343 95.168 76.9166 95.168 75.0195H94.168ZM95.4968 79.9462C96.4235 81.1964 97.7122 81.8242 99.3086 81.8242V80.8242C98.0143 80.8242 97.0297 80.3349 96.3001 79.3507L95.4968 79.9462ZM99.3086 81.8242C100.901 81.8242 102.181 81.237 103.083 80.0436L102.285 79.4408C101.593 80.3567 100.623 80.8242 99.3086 80.8242V81.8242ZM103.084 80.0422C103.968 78.8624 104.39 77.223 104.414 75.1895L103.414 75.1777C103.391 77.0974 102.992 78.497 102.284 79.4422L103.084 80.0422ZM104.414 75.1836V73.918H103.414V75.1836H104.414ZM122.641 83V83.5H123.141V83H122.641ZM120.379 83H119.879V83.5H120.379V83ZM120.379 75.1133H120.879V74.6133H120.379V75.1133ZM111.777 75.1133V74.6133H111.277V75.1133H111.777ZM111.777 83V83.5H112.277V83H111.777ZM109.527 83H109.027V83.5H109.527V83ZM109.527 65.9375V65.4375H109.027V65.9375H109.527ZM111.777 65.9375H112.277V65.4375H111.777V65.9375ZM111.777 73.2734H111.277V73.7734H111.777V73.2734ZM120.379 73.2734V73.7734H120.879V73.2734H120.379ZM120.379 65.9375V65.4375H119.879V65.9375H120.379ZM122.641 65.9375H123.141V65.4375H122.641V65.9375ZM122.641 82.5H120.379V83.5H122.641V82.5ZM120.879 83V75.1133H119.879V83H120.879ZM120.379 74.6133H111.777V75.6133H120.379V74.6133ZM111.277 75.1133V83H112.277V75.1133H111.277ZM111.777 82.5H109.527V83.5H111.777V82.5ZM110.027 83V65.9375H109.027V83H110.027ZM109.527 66.4375H111.777V65.4375H109.527V66.4375ZM111.277 65.9375V73.2734H112.277V65.9375H111.277ZM111.777 73.7734H120.379V72.7734H111.777V73.7734ZM120.879 73.2734V65.9375H119.879V73.2734H120.879ZM120.379 66.4375H122.641V65.4375H120.379V66.4375ZM122.141 65.9375V83H123.141V65.9375H122.141ZM142.246 87.1836V87.6836H142.744L142.746 87.1855L142.246 87.1836ZM140.008 87.1836H139.508V87.6836H140.008V87.1836ZM140.008 83H140.508V82.5H140.008V83ZM127.762 83V82.5H127.262V83H127.762ZM127.762 87.1953V87.6953H128.262V87.1953H127.762ZM125.512 87.1953L125.012 87.1963L125.013 87.6953H125.512V87.1953ZM125.5 81.1602V80.6602H124.999L125 81.1611L125.5 81.1602ZM126.895 81.1602V81.6602H127.119L127.269 81.4919L126.895 81.1602ZM128.641 77.832L128.163 77.6827L128.163 77.6844L128.641 77.832ZM129.461 73.2383L129.96 73.2711L129.96 73.2639L129.461 73.2383ZM129.836 65.9375V65.4375H129.361L129.337 65.9119L129.836 65.9375ZM140.043 65.9375H140.543V65.4375H140.043V65.9375ZM140.043 81.1602H139.543V81.6602H140.043V81.1602ZM142.27 81.1602L142.77 81.1621L142.771 80.6602H142.27V81.1602ZM129.461 81.1602L129.052 80.8724L128.498 81.6602H129.461V81.1602ZM137.781 81.1602V81.6602H138.281V81.1602H137.781ZM137.781 67.7891H138.281V67.2891H137.781V67.7891ZM132.004 67.7891V67.2891H131.528L131.505 67.7646L132.004 67.7891ZM131.758 72.8047L132.257 72.8305L132.257 72.8292L131.758 72.8047ZM130.973 77.8203L130.494 77.6744L130.494 77.6769L130.973 77.8203ZM142.246 86.6836H140.008V87.6836H142.246V86.6836ZM140.508 87.1836V83H139.508V87.1836H140.508ZM140.008 82.5H127.762V83.5H140.008V82.5ZM127.262 83V87.1953H128.262V83H127.262ZM127.762 86.6953H125.512V87.6953H127.762V86.6953ZM126.012 87.1943L126 81.1592L125 81.1611L125.012 87.1963L126.012 87.1943ZM125.5 81.6602H126.895V80.6602H125.5V81.6602ZM127.269 81.4919C128.063 80.5965 128.674 79.4179 129.118 77.9796L128.163 77.6844C127.748 79.0275 127.195 80.0676 126.52 80.8284L127.269 81.4919ZM129.118 77.9813C129.569 76.5403 129.848 74.9694 129.96 73.2711L128.962 73.2055C128.855 74.8353 128.588 76.3269 128.163 77.6827L129.118 77.9813ZM129.96 73.2639L130.335 65.9631L129.337 65.9119L128.962 73.2126L129.96 73.2639ZM129.836 66.4375H140.043V65.4375H129.836V66.4375ZM139.543 65.9375V81.1602H140.543V65.9375H139.543ZM140.043 81.6602H142.27V80.6602H140.043V81.6602ZM141.77 81.1582L141.746 87.1816L142.746 87.1855L142.77 81.1621L141.77 81.1582ZM129.461 81.6602H137.781V80.6602H129.461V81.6602ZM138.281 81.1602V67.7891H137.281V81.1602H138.281ZM137.781 67.2891H132.004V68.2891H137.781V67.2891ZM131.505 67.7646L131.258 72.7802L132.257 72.8292L132.503 67.8136L131.505 67.7646ZM131.258 72.7788C131.158 74.7125 130.901 76.3417 130.494 77.6744L131.451 77.9662C131.888 76.5333 132.154 74.8188 132.257 72.8305L131.258 72.7788ZM130.494 77.6769C130.089 79.0271 129.605 80.0864 129.052 80.8724L129.87 81.4479C130.504 80.5464 131.028 79.3792 131.452 77.9637L130.494 77.6769ZM155.699 65.9375V65.4375H155.425L155.278 65.6683L155.699 65.9375ZM157.949 65.9375H158.449V65.4375H157.949V65.9375ZM157.949 83V83.5H158.449V83H157.949ZM155.699 83H155.199V83.5H155.699V83ZM155.699 69.8516H156.199V68.1406L155.278 69.5823L155.699 69.8516ZM147.297 83V83.5H147.571L147.718 83.2692L147.297 83ZM145.035 83H144.535V83.5H145.035V83ZM145.035 65.9375V65.4375H144.535V65.9375H145.035ZM147.297 65.9375H147.797V65.4375H147.297V65.9375ZM147.297 79.0859H146.797V80.7969L147.718 79.3552L147.297 79.0859ZM155.699 66.4375H157.949V65.4375H155.699V66.4375ZM157.449 65.9375V83H158.449V65.9375H157.449ZM157.949 82.5H155.699V83.5H157.949V82.5ZM156.199 83V69.8516H155.199V83H156.199ZM155.278 69.5823L146.876 82.7308L147.718 83.2692L156.121 70.1208L155.278 69.5823ZM147.297 82.5H145.035V83.5H147.297V82.5ZM145.535 83V65.9375H144.535V83H145.535ZM145.035 66.4375H147.297V65.4375H145.035V66.4375ZM146.797 65.9375V79.0859H147.797V65.9375H146.797ZM147.718 79.3552L156.121 66.2067L155.278 65.6683L146.876 78.8167L147.718 79.3552ZM162.121 65.9375V65.4375H161.621V65.9375H162.121ZM164.383 65.9375H164.883V65.4375H164.383V65.9375ZM164.383 81.1602H163.883V81.6602H164.383V81.1602ZM172.797 81.1602V81.6602H173.297V81.1602H172.797ZM172.797 65.9375V65.4375H172.297V65.9375H172.797ZM175.047 65.9375H175.547V65.4375H175.047V65.9375ZM175.047 81.1133H174.547V81.6133H175.047V81.1133ZM176.84 81.1133L177.34 81.1308L177.358 80.6133H176.84V81.1133ZM176.629 87.1133V87.6133H177.112L177.129 87.1308L176.629 87.1133ZM174.602 87.1133H174.102V87.6133H174.602V87.1133ZM174.602 83H175.102V82.5H174.602V83ZM162.121 83H161.621V83.5H162.121V83ZM162.121 66.4375H164.383V65.4375H162.121V66.4375ZM163.883 65.9375V81.1602H164.883V65.9375H163.883ZM164.383 81.6602H172.797V80.6602H164.383V81.6602ZM173.297 81.1602V65.9375H172.297V81.1602H173.297ZM172.797 66.4375H175.047V65.4375H172.797V66.4375ZM174.547 65.9375V81.1133H175.547V65.9375H174.547ZM175.047 81.6133H176.84V80.6133H175.047V81.6133ZM176.34 81.0957L176.129 87.0957L177.129 87.1308L177.34 81.1308L176.34 81.0957ZM176.629 86.6133H174.602V87.6133H176.629V86.6133ZM175.102 87.1133V83H174.102V87.1133H175.102ZM174.602 82.5H162.121V83.5H174.602V82.5ZM162.621 83V65.9375H161.621V83H162.621ZM190.363 65.9375V65.4375H190.089L189.942 65.6683L190.363 65.9375ZM192.613 65.9375H193.113V65.4375H192.613V65.9375ZM192.613 83V83.5H193.113V83H192.613ZM190.363 83H189.863V83.5H190.363V83ZM190.363 69.8516H190.863V68.1406L189.942 69.5823L190.363 69.8516ZM181.961 83V83.5H182.235L182.382 83.2692L181.961 83ZM179.699 83H179.199V83.5H179.699V83ZM179.699 65.9375V65.4375H179.199V65.9375H179.699ZM181.961 65.9375H182.461V65.4375H181.961V65.9375ZM181.961 79.0859H181.461V80.7969L182.382 79.3552L181.961 79.0859ZM190.363 66.4375H192.613V65.4375H190.363V66.4375ZM192.113 65.9375V83H193.113V65.9375H192.113ZM192.613 82.5H190.363V83.5H192.613V82.5ZM190.863 83V69.8516H189.863V83H190.863ZM189.942 69.5823L181.54 82.7308L182.382 83.2692L190.785 70.1208L189.942 69.5823ZM181.961 82.5H179.699V83.5H181.961V82.5ZM180.199 83V65.9375H179.199V83H180.199ZM179.699 66.4375H181.961V65.4375H179.699V66.4375ZM181.461 65.9375V79.0859H182.461V65.9375H181.461ZM182.382 79.3552L190.785 66.2067L189.942 65.6683L181.54 78.8167L182.382 79.3552ZM208.996 79.4023L209.452 79.6086L209.452 79.6075L208.996 79.4023ZM199.422 82.25L199.153 82.6713L199.155 82.6727L199.422 82.25ZM196.996 79.4258L196.543 79.6366L196.544 79.6401L196.996 79.4258ZM196.117 75.1719H195.617L195.617 75.1767L196.117 75.1719ZM199.387 66.7109L199.656 67.1322L199.657 67.1317L199.387 66.7109ZM206.582 66.6992L206.313 67.1205L206.316 67.1229L206.582 66.6992ZM208.996 69.5703L208.54 69.7744L208.54 69.7755L208.996 69.5703ZM206.383 69.2656L205.982 69.5652L205.984 69.5666L206.383 69.2656ZM199.609 69.2656L199.21 68.9642L199.21 68.9647L199.609 69.2656ZM198.355 73.7656L197.855 73.7595V73.7656H198.355ZM199.586 79.6484L199.182 79.943L199.184 79.9462L199.586 79.6484ZM206.371 79.7422L206.77 80.0436L206.771 80.0422L206.371 79.7422ZM207.602 75.1836L208.102 75.1895V75.1836H207.602ZM209.34 75.0195C209.34 76.6359 209.068 78.0242 208.54 79.1972L209.452 79.6075C210.049 78.2805 210.34 76.7469 210.34 75.0195H209.34ZM208.541 79.1961C208.013 80.3604 207.277 81.23 206.337 81.8282L206.874 82.6718C207.996 81.9575 208.854 80.9287 209.452 79.6086L208.541 79.1961ZM206.337 81.8282C205.396 82.4272 204.288 82.7344 202.996 82.7344V83.7344C204.454 83.7344 205.753 83.3853 206.874 82.6718L206.337 81.8282ZM202.996 82.7344C201.738 82.7344 200.641 82.4284 199.689 81.8273L199.155 82.6727C200.281 83.3841 201.567 83.7344 202.996 83.7344V82.7344ZM199.691 81.8287C198.738 81.2198 197.99 80.3537 197.448 79.2115L196.544 79.6401C197.159 80.9353 198.027 81.952 199.153 82.6713L199.691 81.8287ZM197.449 79.215C196.914 78.064 196.632 76.7185 196.617 75.167L195.617 75.1767C195.633 76.844 195.937 78.3344 196.543 79.6366L197.449 79.215ZM196.617 75.1719V73.9414H195.617V75.1719H196.617ZM196.617 73.9414C196.617 72.3588 196.892 70.9821 197.428 69.8002L196.517 69.3873C195.913 70.721 195.617 72.2428 195.617 73.9414H196.617ZM197.428 69.8002C197.963 68.6196 198.708 67.7381 199.656 67.1322L199.117 66.2896C197.987 67.0119 197.123 68.0523 196.517 69.3873L197.428 69.8002ZM199.657 67.1317C200.617 66.5157 201.717 66.2031 202.973 66.2031V65.2031C201.541 65.2031 200.251 65.5624 199.117 66.2901L199.657 67.1317ZM202.973 66.2031C204.255 66.2031 205.363 66.5133 206.313 67.1205L206.851 66.2779C205.723 65.557 204.425 65.2031 202.973 65.2031V66.2031ZM206.316 67.1229C207.27 67.7205 208.013 68.5963 208.54 69.7744L209.453 69.3662C208.854 68.0287 207.988 66.9904 206.848 66.2756L206.316 67.1229ZM208.54 69.7755C209.068 70.9487 209.34 72.3333 209.34 73.9414H210.34C210.34 72.2214 210.049 70.6919 209.452 69.3651L208.54 69.7755ZM209.34 73.9414V75.0195H210.34V73.9414H209.34ZM208.102 73.918C208.102 71.8375 207.685 70.1632 206.782 68.9647L205.984 69.5666C206.705 70.5243 207.102 71.9516 207.102 73.918H208.102ZM206.783 68.9661C205.868 67.7431 204.577 67.1367 202.973 67.1367V68.1367C204.29 68.1367 205.273 68.6163 205.982 69.5652L206.783 68.9661ZM202.973 67.1367C201.402 67.1367 200.13 67.7468 199.21 68.9642L200.008 69.567C200.729 68.6126 201.699 68.1367 202.973 68.1367V67.1367ZM199.21 68.9647C198.311 70.1571 197.88 71.7748 197.856 73.7595L198.855 73.7717C198.878 71.9127 199.282 70.5304 200.009 69.5666L199.21 68.9647ZM197.855 73.7656V75.0195H198.855V73.7656H197.855ZM197.855 75.0195C197.855 77.0444 198.278 78.7039 199.182 79.943L199.99 79.3539C199.253 78.343 198.855 76.9166 198.855 75.0195H197.855ZM199.184 79.9462C200.111 81.1964 201.4 81.8242 202.996 81.8242V80.8242C201.702 80.8242 200.717 80.3349 199.988 79.3507L199.184 79.9462ZM202.996 81.8242C204.588 81.8242 205.868 81.237 206.77 80.0436L205.972 79.4408C205.28 80.3567 204.31 80.8242 202.996 80.8242V81.8242ZM206.771 80.0422C207.656 78.8624 208.077 77.223 208.102 75.1895L207.102 75.1777C207.079 77.0974 206.68 78.497 205.971 79.4422L206.771 80.0422ZM208.102 75.1836V73.918H207.102V75.1836H208.102ZM226.328 83V83.5H226.828V83H226.328ZM224.066 83H223.566V83.5H224.066V83ZM224.066 75.1133H224.566V74.6133H224.066V75.1133ZM215.465 75.1133V74.6133H214.965V75.1133H215.465ZM215.465 83V83.5H215.965V83H215.465ZM213.215 83H212.715V83.5H213.215V83ZM213.215 65.9375V65.4375H212.715V65.9375H213.215ZM215.465 65.9375H215.965V65.4375H215.465V65.9375ZM215.465 73.2734H214.965V73.7734H215.465V73.2734ZM224.066 73.2734V73.7734H224.566V73.2734H224.066ZM224.066 65.9375V65.4375H223.566V65.9375H224.066ZM226.328 65.9375H226.828V65.4375H226.328V65.9375ZM226.328 82.5H224.066V83.5H226.328V82.5ZM224.566 83V75.1133H223.566V83H224.566ZM224.066 74.6133H215.465V75.6133H224.066V74.6133ZM214.965 75.1133V83H215.965V75.1133H214.965ZM215.465 82.5H213.215V83.5H215.465V82.5ZM213.715 83V65.9375H212.715V83H213.715ZM213.215 66.4375H215.465V65.4375H213.215V66.4375ZM214.965 65.9375V73.2734H215.965V65.9375H214.965ZM215.465 73.7734H224.066V72.7734H215.465V73.7734ZM224.566 73.2734V65.9375H223.566V73.2734H224.566ZM224.066 66.4375H226.328V65.4375H224.066V66.4375ZM225.828 65.9375V83H226.828V65.9375H225.828ZM241.082 65.9375V65.4375H240.808L240.661 65.6683L241.082 65.9375ZM243.332 65.9375H243.832V65.4375H243.332V65.9375ZM243.332 83V83.5H243.832V83H243.332ZM241.082 83H240.582V83.5H241.082V83ZM241.082 69.8516H241.582V68.1406L240.661 69.5823L241.082 69.8516ZM232.68 83V83.5H232.954L233.101 83.2692L232.68 83ZM230.418 83H229.918V83.5H230.418V83ZM230.418 65.9375V65.4375H229.918V65.9375H230.418ZM232.68 65.9375H233.18V65.4375H232.68V65.9375ZM232.68 79.0859H232.18V80.7969L233.101 79.3552L232.68 79.0859ZM241.082 66.4375H243.332V65.4375H241.082V66.4375ZM242.832 65.9375V83H243.832V65.9375H242.832ZM243.332 82.5H241.082V83.5H243.332V82.5ZM241.582 83V69.8516H240.582V83H241.582ZM240.661 69.5823L232.258 82.7308L233.101 83.2692L241.503 70.1208L240.661 69.5823ZM232.68 82.5H230.418V83.5H232.68V82.5ZM230.918 83V65.9375H229.918V83H230.918ZM230.418 66.4375H232.68V65.4375H230.418V66.4375ZM232.18 65.9375V79.0859H233.18V65.9375H232.18ZM233.101 79.3552L241.503 66.2067L240.661 65.6683L232.258 78.8167L233.101 79.3552ZM249.684 76.3203V75.8203H249.184V76.3203H249.684ZM249.684 83V83.5H250.184V83H249.684ZM247.434 83H246.934V83.5H247.434V83ZM247.434 65.9375V65.4375H246.934V65.9375H247.434ZM258.109 67.3672L257.774 67.7382L257.775 67.7394L258.109 67.3672ZM258.145 74.9844L258.471 75.3628L258.472 75.3626L258.145 74.9844ZM249.684 74.4805H249.184V74.9805H249.684V74.4805ZM256.492 73.6367L256.822 74.0124L256.825 74.0102L256.492 73.6367ZM253.855 67.7891L253.866 67.2891H253.855V67.7891ZM249.684 67.7891V67.2891H249.184V67.7891H249.684ZM249.184 76.3203V83H250.184V76.3203H249.184ZM249.684 82.5H247.434V83.5H249.684V82.5ZM247.934 83V65.9375H246.934V83H247.934ZM247.434 66.4375H253.727V65.4375H247.434V66.4375ZM253.727 66.4375C255.51 66.4375 256.837 66.8913 257.774 67.7382L258.445 66.9962C257.272 65.9368 255.678 65.4375 253.727 65.4375V66.4375ZM257.775 67.7394C258.721 68.5875 259.203 69.7082 259.203 71.1523H260.203C260.203 69.4559 259.623 68.0531 258.443 66.995L257.775 67.7394ZM259.203 71.1523C259.203 72.6961 258.724 73.8222 257.818 74.6062L258.472 75.3626C259.643 74.3497 260.203 72.9211 260.203 71.1523H259.203ZM257.818 74.606C256.909 75.391 255.562 75.8203 253.703 75.8203V76.8203C255.703 76.8203 257.318 76.359 258.471 75.3628L257.818 74.606ZM253.703 75.8203H249.684V76.8203H253.703V75.8203ZM249.684 74.9805H253.727V73.9805H249.684V74.9805ZM253.727 74.9805C255.002 74.9805 256.059 74.6826 256.822 74.0124L256.162 73.261C255.644 73.7158 254.858 73.9805 253.727 73.9805V74.9805ZM256.825 74.0102C257.597 73.3223 257.953 72.3507 257.953 71.1758H256.953C256.953 72.1415 256.668 72.8105 256.16 73.2633L256.825 74.0102ZM257.953 71.1758C257.953 70.0455 257.592 69.0941 256.837 68.376L256.148 69.1006C256.674 69.6012 256.953 70.2748 256.953 71.1758H257.953ZM256.837 68.376C256.084 67.6598 255.074 67.3145 253.866 67.2892L253.845 68.289C254.872 68.3105 255.619 68.598 256.148 69.1006L256.837 68.376ZM253.855 67.2891H249.684V68.2891H253.855V67.2891ZM249.184 67.7891V74.4805H250.184V67.7891H249.184ZM274.855 79.4023L275.311 79.6086L275.311 79.6075L274.855 79.4023ZM265.281 82.25L265.012 82.6713L265.014 82.6727L265.281 82.25ZM262.855 79.4258L262.402 79.6366L262.404 79.6401L262.855 79.4258ZM261.977 75.1719H261.477L261.477 75.1767L261.977 75.1719ZM265.246 66.7109L265.515 67.1322L265.516 67.1317L265.246 66.7109ZM272.441 66.6992L272.172 67.1205L272.176 67.1229L272.441 66.6992ZM274.855 69.5703L274.399 69.7744L274.4 69.7755L274.855 69.5703ZM272.242 69.2656L271.842 69.5652L271.843 69.5666L272.242 69.2656ZM265.469 69.2656L265.07 68.9642L265.069 68.9647L265.469 69.2656ZM264.215 73.7656L263.715 73.7595V73.7656H264.215ZM265.445 79.6484L265.041 79.943L265.044 79.9462L265.445 79.6484ZM272.23 79.7422L272.629 80.0436L272.63 80.0422L272.23 79.7422ZM273.461 75.1836L273.961 75.1895V75.1836H273.461ZM275.199 75.0195C275.199 76.6359 274.927 78.0242 274.4 79.1972L275.311 79.6075C275.909 78.2805 276.199 76.7469 276.199 75.0195H275.199ZM274.4 79.1961C273.873 80.3604 273.136 81.23 272.196 81.8282L272.733 82.6718C273.856 81.9575 274.713 80.9287 275.311 79.6086L274.4 79.1961ZM272.196 81.8282C271.255 82.4272 270.148 82.7344 268.855 82.7344V83.7344C270.313 83.7344 271.612 83.3853 272.733 82.6718L272.196 81.8282ZM268.855 82.7344C267.597 82.7344 266.5 82.4284 265.548 81.8273L265.014 82.6727C266.141 83.3841 267.426 83.7344 268.855 83.7344V82.7344ZM265.551 81.8287C264.598 81.2198 263.849 80.3537 263.307 79.2115L262.404 79.6401C263.018 80.9353 263.887 81.952 265.012 82.6713L265.551 81.8287ZM263.309 79.215C262.774 78.064 262.492 76.7185 262.477 75.167L261.477 75.1767C261.493 76.844 261.797 78.3344 262.402 79.6366L263.309 79.215ZM262.477 75.1719V73.9414H261.477V75.1719H262.477ZM262.477 73.9414C262.477 72.3588 262.752 70.9821 263.287 69.8002L262.377 69.3873C261.772 70.721 261.477 72.2428 261.477 73.9414H262.477ZM263.287 69.8002C263.823 68.6196 264.567 67.7381 265.515 67.1322L264.977 66.2896C263.847 67.0119 262.982 68.0523 262.377 69.3873L263.287 69.8002ZM265.516 67.1317C266.476 66.5157 267.576 66.2031 268.832 66.2031V65.2031C267.401 65.2031 266.11 65.5624 264.976 66.2901L265.516 67.1317ZM268.832 66.2031C270.115 66.2031 271.222 66.5133 272.172 67.1205L272.711 66.2779C271.583 65.557 270.284 65.2031 268.832 65.2031V66.2031ZM272.176 67.1229C273.129 67.7205 273.872 68.5963 274.399 69.7744L275.312 69.3662C274.714 68.0287 273.847 66.9904 272.707 66.2756L272.176 67.1229ZM274.4 69.7755C274.927 70.9487 275.199 72.3333 275.199 73.9414H276.199C276.199 72.2214 275.908 70.6919 275.311 69.3651L274.4 69.7755ZM275.199 73.9414V75.0195H276.199V73.9414H275.199ZM273.961 73.918C273.961 71.8375 273.545 70.1632 272.641 68.9647L271.843 69.5666C272.565 70.5243 272.961 71.9516 272.961 73.918H273.961ZM272.643 68.9661C271.727 67.7431 270.436 67.1367 268.832 67.1367V68.1367C270.15 68.1367 271.132 68.6163 271.842 69.5652L272.643 68.9661ZM268.832 67.1367C267.262 67.1367 265.989 67.7468 265.07 68.9642L265.868 69.567C266.589 68.6126 267.559 68.1367 268.832 68.1367V67.1367ZM265.069 68.9647C264.171 70.1571 263.739 71.7748 263.715 73.7595L264.715 73.7717C264.737 71.9127 265.142 70.5304 265.868 69.5666L265.069 68.9647ZM263.715 73.7656V75.0195H264.715V73.7656H263.715ZM263.715 75.0195C263.715 77.0444 264.138 78.7039 265.041 79.943L265.849 79.3539C265.112 78.343 264.715 76.9166 264.715 75.0195H263.715ZM265.044 79.9462C265.97 81.1964 267.259 81.8242 268.855 81.8242V80.8242C267.561 80.8242 266.577 80.3349 265.847 79.3507L265.044 79.9462ZM268.855 81.8242C270.447 81.8242 271.728 81.237 272.629 80.0436L271.832 79.4408C271.139 80.3567 270.17 80.8242 268.855 80.8242V81.8242ZM272.63 80.0422C273.515 78.8624 273.937 77.223 273.961 75.1895L272.961 75.1777C272.938 77.0974 272.539 78.497 271.83 79.4422L272.63 80.0422ZM273.961 75.1836V73.918H272.961V75.1836H273.961ZM279.074 83H278.574V83.5H279.074V83ZM279.074 65.9375V65.4375H278.574V65.9375H279.074ZM288.824 67.0859L288.506 67.4719L288.508 67.4732L288.824 67.0859ZM289.551 72.6055L289.952 72.9038L289.954 72.9014L289.551 72.6055ZM287.699 74.0234L287.502 73.5641L286.201 74.1235L287.565 74.505L287.699 74.0234ZM289.879 75.5L289.475 75.7951L289.479 75.8L289.879 75.5ZM281.324 75.0195V74.5195H280.824V75.0195H281.324ZM281.324 81.1602H280.824V81.6602H281.324V81.1602ZM287.512 80.3516L287.845 80.7239L287.846 80.7237L287.512 80.3516ZM281.324 73.2148H280.824V73.7148H281.324V73.2148ZM287.078 72.4766L286.759 72.0916L286.757 72.0937L287.078 72.4766ZM287.148 68.4336L286.84 68.8268L286.843 68.8295L287.148 68.4336ZM281.324 67.7891V67.2891H280.824V67.7891H281.324ZM279.574 83V65.9375H278.574V83H279.574ZM279.074 66.4375H284.652V65.4375H279.074V66.4375ZM284.652 66.4375C286.447 66.4375 287.703 66.8105 288.506 67.4719L289.142 66.7C288.086 65.8301 286.561 65.4375 284.652 65.4375V66.4375ZM288.508 67.4732C289.302 68.1215 289.73 69.0951 289.73 70.4844H290.73C290.73 68.8736 290.222 67.5816 289.14 66.6987L288.508 67.4732ZM289.73 70.4844C289.73 71.1794 289.535 71.7818 289.148 72.3096L289.954 72.9014C290.473 72.1947 290.73 71.3831 290.73 70.4844H289.73ZM289.15 72.3071C288.755 72.8376 288.212 73.2587 287.502 73.5641L287.897 74.4828C288.749 74.1163 289.44 73.592 289.952 72.9038L289.15 72.3071ZM287.565 74.505C288.386 74.7346 289.015 75.1651 289.475 75.7951L290.283 75.2049C289.681 74.3818 288.856 73.8279 287.834 73.5419L287.565 74.505ZM289.479 75.8C289.946 76.4224 290.188 77.1734 290.188 78.0781H291.188C291.188 76.9828 290.89 76.0151 290.279 75.2L289.479 75.8ZM290.188 78.0781C290.188 79.4908 289.736 80.5478 288.868 81.3125L289.53 82.0625C290.647 81.0772 291.188 79.7279 291.188 78.0781H290.188ZM288.868 81.3125C287.997 82.0813 286.728 82.5 284.992 82.5V83.5C286.881 83.5 288.417 83.0437 289.53 82.0625L288.868 81.3125ZM284.992 82.5H279.074V83.5H284.992V82.5ZM280.824 75.0195V81.1602H281.824V75.0195H280.824ZM281.324 81.6602H285.039V80.6602H281.324V81.6602ZM285.039 81.6602C286.172 81.6602 287.128 81.3671 287.845 80.7239L287.178 79.9792C286.693 80.4141 286 80.6602 285.039 80.6602V81.6602ZM287.846 80.7237C288.578 80.0661 288.926 79.1711 288.926 78.1016H287.926C287.926 78.9383 287.664 79.5433 287.178 79.9794L287.846 80.7237ZM288.926 78.1016C288.926 76.9859 288.621 76.0604 287.926 75.422C287.24 74.7909 286.259 74.5195 285.074 74.5195V75.5195C286.124 75.5195 286.819 75.7618 287.249 76.1581C287.672 76.5471 287.926 77.1626 287.926 78.1016H288.926ZM285.074 74.5195H281.324V75.5195H285.074V74.5195ZM281.324 73.7148H284.723V72.7148H281.324V73.7148ZM284.723 73.7148C285.79 73.7148 286.7 73.4468 287.4 72.8594L286.757 72.0937C286.284 72.4907 285.624 72.7148 284.723 72.7148V73.7148ZM287.397 72.8615C288.117 72.2646 288.469 71.4494 288.469 70.4727H287.469C287.469 71.1835 287.226 71.7041 286.759 72.0916L287.397 72.8615ZM288.469 70.4727C288.469 69.4395 288.164 68.5854 287.454 68.0377L286.843 68.8295C287.227 69.1255 287.469 69.6308 287.469 70.4727H288.469ZM287.457 68.0404C286.783 67.5106 285.818 67.2891 284.652 67.2891V68.2891C285.721 68.2891 286.42 68.4972 286.84 68.8268L287.457 68.0404ZM284.652 67.2891H281.324V68.2891H284.652V67.2891ZM280.824 67.7891V73.2148H281.824V67.7891H280.824ZM303.449 78.5469L303.919 78.3751L303.799 78.0469H303.449V78.5469ZM296.301 78.5469V78.0469H295.95L295.83 78.3773L296.301 78.5469ZM294.695 83V83.5H295.047L295.166 83.1696L294.695 83ZM292.375 83L291.908 82.8216L291.649 83.5H292.375V83ZM298.891 65.9375V65.4375H298.546L298.424 65.7591L298.891 65.9375ZM300.859 65.9375L301.326 65.7588L301.203 65.4375H300.859V65.9375ZM307.387 83V83.5H308.113L307.854 82.8213L307.387 83ZM305.078 83L304.609 83.1718L304.729 83.5H305.078V83ZM296.98 76.6953L296.51 76.5248L296.267 77.1953H296.98V76.6953ZM302.781 76.6953V77.1953H303.495L303.251 76.5242L302.781 76.6953ZM299.875 68.7148L300.345 68.5438L299.874 67.251L299.405 68.5444L299.875 68.7148ZM303.449 78.0469H296.301V79.0469H303.449V78.0469ZM295.83 78.3773L294.225 82.8304L295.166 83.1696L296.771 78.7165L295.83 78.3773ZM294.695 82.5H292.375V83.5H294.695V82.5ZM292.842 83.1784L299.358 66.1159L298.424 65.7591L291.908 82.8216L292.842 83.1784ZM298.891 66.4375H300.859V65.4375H298.891V66.4375ZM300.392 66.1162L306.92 83.1787L307.854 82.8213L301.326 65.7588L300.392 66.1162ZM307.387 82.5H305.078V83.5H307.387V82.5ZM305.548 82.8282L303.919 78.3751L302.98 78.7186L304.609 83.1718L305.548 82.8282ZM296.98 77.1953H302.781V76.1953H296.98V77.1953ZM303.251 76.5242L300.345 68.5438L299.405 68.8859L302.311 76.8664L303.251 76.5242ZM299.405 68.5444L296.51 76.5248L297.451 76.8658L300.345 68.8853L299.405 68.5444ZM322.797 83V83.5H323.297V83H322.797ZM320.535 83H320.035V83.5H320.535V83ZM320.535 75.1133H321.035V74.6133H320.535V75.1133ZM311.934 75.1133V74.6133H311.434V75.1133H311.934ZM311.934 83V83.5H312.434V83H311.934ZM309.684 83H309.184V83.5H309.684V83ZM309.684 65.9375V65.4375H309.184V65.9375H309.684ZM311.934 65.9375H312.434V65.4375H311.934V65.9375ZM311.934 73.2734H311.434V73.7734H311.934V73.2734ZM320.535 73.2734V73.7734H321.035V73.2734H320.535ZM320.535 65.9375V65.4375H320.035V65.9375H320.535ZM322.797 65.9375H323.297V65.4375H322.797V65.9375ZM322.797 82.5H320.535V83.5H322.797V82.5ZM321.035 83V75.1133H320.035V83H321.035ZM320.535 74.6133H311.934V75.6133H320.535V74.6133ZM311.434 75.1133V83H312.434V75.1133H311.434ZM311.934 82.5H309.684V83.5H311.934V82.5ZM310.184 83V65.9375H309.184V83H310.184ZM309.684 66.4375H311.934V65.4375H309.684V66.4375ZM311.434 65.9375V73.2734H312.434V65.9375H311.434ZM311.934 73.7734H320.535V72.7734H311.934V73.7734ZM321.035 73.2734V65.9375H320.035V73.2734H321.035ZM320.535 66.4375H322.797V65.4375H320.535V66.4375ZM322.297 65.9375V83H323.297V65.9375H322.297ZM337.551 65.9375V65.4375H337.277L337.129 65.6683L337.551 65.9375ZM339.801 65.9375H340.301V65.4375H339.801V65.9375ZM339.801 83V83.5H340.301V83H339.801ZM337.551 83H337.051V83.5H337.551V83ZM337.551 69.8516H338.051V68.1406L337.129 69.5823L337.551 69.8516ZM329.148 83V83.5H329.422L329.57 83.2692L329.148 83ZM326.887 83H326.387V83.5H326.887V83ZM326.887 65.9375V65.4375H326.387V65.9375H326.887ZM329.148 65.9375H329.648V65.4375H329.148V65.9375ZM329.148 79.0859H328.648V80.7969L329.57 79.3552L329.148 79.0859ZM337.551 66.4375H339.801V65.4375H337.551V66.4375ZM339.301 65.9375V83H340.301V65.9375H339.301ZM339.801 82.5H337.551V83.5H339.801V82.5ZM338.051 83V69.8516H337.051V83H338.051ZM337.129 69.5823L328.727 82.7308L329.57 83.2692L337.972 70.1208L337.129 69.5823ZM329.148 82.5H326.887V83.5H329.148V82.5ZM327.387 83V65.9375H326.387V83H327.387ZM326.887 66.4375H329.148V65.4375H326.887V66.4375ZM328.648 65.9375V79.0859H329.648V65.9375H328.648ZM329.57 79.3552L337.972 66.2067L337.129 65.6683L328.727 78.8167L329.57 79.3552ZM353.547 75.1133V75.6133H354.047V75.1133H353.547ZM346.152 75.1133V74.6133H345.652V75.1133H346.152ZM346.152 81.1602H345.652V81.6602H346.152V81.1602ZM354.742 81.1602H355.242V80.6602H354.742V81.1602ZM354.742 83V83.5H355.242V83H354.742ZM343.902 83H343.402V83.5H343.902V83ZM343.902 65.9375V65.4375H343.402V65.9375H343.902ZM354.625 65.9375H355.125V65.4375H354.625V65.9375ZM354.625 67.7891V68.2891H355.125V67.7891H354.625ZM346.152 67.7891V67.2891H345.652V67.7891H346.152ZM346.152 73.2734H345.652V73.7734H346.152V73.2734ZM353.547 73.2734H354.047V72.7734H353.547V73.2734ZM353.547 74.6133H346.152V75.6133H353.547V74.6133ZM345.652 75.1133V81.1602H346.652V75.1133H345.652ZM346.152 81.6602H354.742V80.6602H346.152V81.6602ZM354.242 81.1602V83H355.242V81.1602H354.242ZM354.742 82.5H343.902V83.5H354.742V82.5ZM344.402 83V65.9375H343.402V83H344.402ZM343.902 66.4375H354.625V65.4375H343.902V66.4375ZM354.125 65.9375V67.7891H355.125V65.9375H354.125ZM354.625 67.2891H346.152V68.2891H354.625V67.2891ZM345.652 67.7891V73.2734H346.652V67.7891H345.652ZM346.152 73.7734H353.547V72.7734H346.152V73.7734ZM353.047 73.2734V75.1133H354.047V73.2734H353.047Z" fill="black"/>
</svg>
