<svg width="453" height="150" viewBox="0 0 453 150" fill="none" xmlns="http://www.w3.org/2000/svg">
<rect x="0.991211" width="451.503" height="150" fill="white"/>
<path d="M156.887 83.12C155.687 83.12 154.599 82.88 153.623 82.4C152.647 81.904 151.807 81.248 151.103 80.432C150.399 79.616 149.855 78.696 149.471 77.672C149.087 76.632 148.895 75.568 148.895 74.48C148.895 73.344 149.095 72.264 149.495 71.24C149.895 70.2 150.455 69.28 151.175 68.48C151.911 67.664 152.767 67.024 153.743 66.56C154.719 66.08 155.775 65.84 156.911 65.84C158.095 65.84 159.175 66.088 160.151 66.584C161.127 67.08 161.967 67.744 162.671 68.576C163.391 69.408 163.935 70.336 164.303 71.36C164.687 72.384 164.879 73.432 164.879 74.504C164.879 75.64 164.679 76.728 164.279 77.768C163.879 78.792 163.319 79.712 162.599 80.528C161.879 81.328 161.031 81.96 160.055 82.424C159.079 82.888 158.023 83.12 156.887 83.12ZM150.575 74.48C150.575 75.408 150.727 76.296 151.031 77.144C151.335 77.992 151.767 78.752 152.327 79.424C152.887 80.096 153.551 80.632 154.319 81.032C155.103 81.416 155.959 81.608 156.887 81.608C157.863 81.608 158.735 81.408 159.503 81.008C160.287 80.592 160.951 80.04 161.495 79.352C162.055 78.664 162.479 77.904 162.767 77.072C163.055 76.224 163.199 75.36 163.199 74.48C163.199 73.552 163.047 72.664 162.743 71.816C162.439 70.968 161.999 70.208 161.423 69.536C160.863 68.864 160.199 68.336 159.431 67.952C158.663 67.568 157.815 67.376 156.887 67.376C155.927 67.376 155.055 67.576 154.271 67.976C153.503 68.376 152.839 68.92 152.279 69.608C151.735 70.28 151.311 71.04 151.007 71.888C150.719 72.736 150.575 73.6 150.575 74.48ZM179.533 67.448H173.461V83H171.781V67.448H165.709V65.96H179.533V67.448ZM188.34 83.12C187.14 83.12 186.052 82.88 185.076 82.4C184.1 81.904 183.26 81.248 182.556 80.432C181.852 79.616 181.308 78.696 180.924 77.672C180.54 76.632 180.348 75.568 180.348 74.48C180.348 73.344 180.548 72.264 180.948 71.24C181.348 70.2 181.908 69.28 182.628 68.48C183.364 67.664 184.22 67.024 185.196 66.56C186.172 66.08 187.228 65.84 188.364 65.84C189.548 65.84 190.628 66.088 191.604 66.584C192.58 67.08 193.42 67.744 194.124 68.576C194.844 69.408 195.388 70.336 195.756 71.36C196.14 72.384 196.332 73.432 196.332 74.504C196.332 75.64 196.132 76.728 195.732 77.768C195.332 78.792 194.772 79.712 194.052 80.528C193.332 81.328 192.484 81.96 191.508 82.424C190.532 82.888 189.476 83.12 188.34 83.12ZM182.028 74.48C182.028 75.408 182.18 76.296 182.484 77.144C182.788 77.992 183.22 78.752 183.78 79.424C184.34 80.096 185.004 80.632 185.772 81.032C186.556 81.416 187.412 81.608 188.34 81.608C189.316 81.608 190.188 81.408 190.956 81.008C191.74 80.592 192.404 80.04 192.948 79.352C193.508 78.664 193.932 77.904 194.22 77.072C194.508 76.224 194.652 75.36 194.652 74.48C194.652 73.552 194.5 72.664 194.196 71.816C193.892 70.968 193.452 70.208 192.876 69.536C192.316 68.864 191.652 68.336 190.884 67.952C190.116 67.568 189.268 67.376 188.34 67.376C187.38 67.376 186.508 67.576 185.724 67.976C184.956 68.376 184.292 68.92 183.732 69.608C183.188 70.28 182.764 71.04 182.46 71.888C182.172 72.736 182.028 73.6 182.028 74.48ZM199.499 83V65.96H212.363V83H210.683V67.448H201.179V83H199.499ZM228.152 83V67.448H221.192L221.096 71.048C221.016 73.4 220.848 75.352 220.592 76.904C220.336 78.456 219.976 79.68 219.512 80.576C219.048 81.456 218.472 82.088 217.784 82.472C217.112 82.84 216.32 83.024 215.408 83.024V81.536C216.032 81.536 216.584 81.376 217.064 81.056C217.544 80.736 217.952 80.176 218.288 79.376C218.624 78.576 218.888 77.472 219.08 76.064C219.288 74.64 219.424 72.84 219.488 70.664L219.632 65.96H229.808V83H228.152ZM245.517 81.512V83H234.069V65.96H245.301V67.448H235.749V73.592H244.077V75.008H235.749V81.512H245.517ZM262.134 65.96V83H260.478V75.032H250.374V83H248.694V65.96H250.374V73.544H260.478V65.96H262.134ZM266.509 83V65.96H268.165V80.696L278.725 65.96H280.285V83H278.629V68.528L268.189 83H266.509ZM296.096 81.512V83H284.648V65.96H295.88V67.448H286.328V73.592H294.656V75.008H286.328V81.512H296.096Z" fill="black"/>
<path d="M153.623 82.4L153.396 82.8458L153.402 82.8487L153.623 82.4ZM151.103 80.432L151.481 80.1054L151.103 80.432ZM149.471 77.672L149.002 77.8452L149.002 77.8476L149.471 77.672ZM149.495 71.24L149.96 71.4219L149.961 71.4195L149.495 71.24ZM151.175 68.48L150.803 68.1451L150.803 68.1455L151.175 68.48ZM153.743 66.56L153.957 67.0116L153.963 67.0087L153.743 66.56ZM160.151 66.584L159.924 67.0297H159.924L160.151 66.584ZM162.671 68.576L162.289 68.899L162.292 68.9032L162.671 68.576ZM164.303 71.36L163.832 71.5291L163.834 71.5356L164.303 71.36ZM164.279 77.768L164.744 77.9499L164.745 77.9475L164.279 77.768ZM162.599 80.528L162.97 80.8625L162.973 80.8588L162.599 80.528ZM160.055 82.424L160.269 82.8756L160.055 82.424ZM151.031 77.144L151.501 76.9753L151.031 77.144ZM152.327 79.424L151.942 79.7441H151.942L152.327 79.424ZM154.319 81.032L154.088 81.4756L154.099 81.481L154.319 81.032ZM159.503 81.008L159.734 81.4515L159.737 81.4497L159.503 81.008ZM161.495 79.352L161.107 79.0363L161.102 79.0419L161.495 79.352ZM162.767 77.072L163.239 77.2356L163.24 77.2328L162.767 77.072ZM162.743 71.816L162.272 71.9847L162.743 71.816ZM161.423 69.536L161.038 69.8561L161.043 69.8614L161.423 69.536ZM154.271 67.976L154.043 67.5306L154.04 67.5325L154.271 67.976ZM152.279 69.608L151.891 69.2924L151.89 69.2934L152.279 69.608ZM151.007 71.888L150.536 71.7192L150.533 71.7272L151.007 71.888ZM156.887 82.62C155.755 82.62 154.744 82.3942 153.843 81.9513L153.402 82.8487C154.453 83.3658 155.618 83.62 156.887 83.62V82.62ZM153.849 81.9543C152.93 81.4872 152.142 80.8714 151.481 80.1054L150.724 80.7586C151.471 81.6246 152.363 82.3208 153.396 82.8457L153.849 81.9543ZM151.481 80.1054C150.816 79.3347 150.302 78.466 149.939 77.4964L149.002 77.8476C149.407 78.926 149.981 79.8973 150.724 80.7586L151.481 80.1054ZM149.94 77.4988C149.576 76.5132 149.395 75.5078 149.395 74.48H148.395C148.395 75.6282 148.597 76.7508 149.002 77.8452L149.94 77.4988ZM149.395 74.48C149.395 73.4041 149.584 72.386 149.96 71.4219L149.029 71.0581C148.605 72.142 148.395 73.2839 148.395 74.48H149.395ZM149.961 71.4195C150.34 70.4345 150.869 69.5675 151.546 68.8145L150.803 68.1455C150.041 68.9925 149.449 69.9655 149.028 71.0605L149.961 71.4195ZM151.546 68.8149C152.239 68.0469 153.042 67.4469 153.957 67.0116L153.528 66.1084C152.492 66.6011 151.583 67.2811 150.803 68.1451L151.546 68.8149ZM153.963 67.0087C154.868 66.564 155.848 66.34 156.911 66.34V65.34C155.702 65.34 154.57 65.596 153.522 66.1113L153.963 67.0087ZM156.911 66.34C158.022 66.34 159.024 66.5723 159.924 67.0297L160.377 66.1383C159.325 65.6037 158.167 65.34 156.911 65.34V66.34ZM159.924 67.0297C160.841 67.4957 161.628 68.1181 162.289 68.899L163.052 68.253C162.305 67.3699 161.412 66.6643 160.377 66.1383L159.924 67.0297ZM162.292 68.9032C162.973 69.6892 163.485 70.5637 163.832 71.5291L164.773 71.1909C164.384 70.1083 163.808 69.1268 163.049 68.2488L162.292 68.9032ZM163.834 71.5356C164.198 72.5046 164.379 73.4932 164.379 74.504H165.379C165.379 73.3708 165.175 72.2634 164.771 71.1844L163.834 71.5356ZM164.379 74.504C164.379 75.5799 164.189 76.6069 163.812 77.5885L164.745 77.9475C165.168 76.8491 165.379 75.7001 165.379 74.504H164.379ZM163.813 77.5861C163.434 78.5561 162.904 79.4256 162.224 80.1972L162.973 80.8588C163.733 79.9984 164.323 79.0279 164.744 77.9499L163.813 77.5861ZM162.227 80.1935C161.551 80.9443 160.757 81.5366 159.84 81.9724L160.269 82.8756C161.305 82.3834 162.206 81.7117 162.97 80.8625L162.227 80.1935ZM159.84 81.9724C158.934 82.4029 157.952 82.62 156.887 82.62V83.62C158.093 83.62 159.223 83.3731 160.269 82.8756L159.84 81.9724ZM150.075 74.48C150.075 75.4638 150.236 76.409 150.56 77.3127L151.501 76.9753C151.217 76.183 151.075 75.3522 151.075 74.48H150.075ZM150.56 77.3127C150.883 78.2142 151.344 79.0258 151.942 79.7441L152.711 79.1039C152.189 78.4782 151.786 77.7698 151.501 76.9753L150.56 77.3127ZM151.942 79.7441C152.544 80.4664 153.26 81.0446 154.088 81.4755L154.55 80.5885C153.841 80.2194 153.229 79.7256 152.711 79.1039L151.942 79.7441ZM154.099 81.481C154.955 81.9007 155.887 82.108 156.887 82.108V81.108C156.03 81.108 155.25 80.9313 154.539 80.583L154.099 81.481ZM156.887 82.108C157.933 82.108 158.886 81.8931 159.734 81.4515L159.272 80.5645C158.584 80.9229 157.792 81.108 156.887 81.108V82.108ZM159.737 81.4497C160.581 81.0016 161.299 80.4051 161.887 79.6621L161.102 79.0419C160.602 79.6749 159.992 80.1824 159.268 80.5663L159.737 81.4497ZM161.882 79.6676C162.479 78.9346 162.932 78.1232 163.239 77.2356L162.294 76.9084C162.025 77.6848 161.63 78.3934 161.107 79.0364L161.882 79.6676ZM163.24 77.2328C163.545 76.3339 163.699 75.4157 163.699 74.48H162.699C162.699 75.3043 162.564 76.1141 162.293 76.9112L163.24 77.2328ZM163.699 74.48C163.699 73.4962 163.537 72.551 163.213 71.6473L162.272 71.9847C162.556 72.777 162.699 73.6078 162.699 74.48H163.699ZM163.213 71.6473C162.889 70.743 162.419 69.9297 161.802 69.2106L161.043 69.8614C161.579 70.4863 161.988 71.193 162.272 71.9847L163.213 71.6473ZM161.807 69.2159C161.203 68.4919 160.485 67.9202 159.654 67.5048L159.207 68.3992C159.912 68.7518 160.522 69.2361 161.038 69.8561L161.807 69.2159ZM159.654 67.5048C158.811 67.0833 157.886 66.876 156.887 66.876V67.876C157.743 67.876 158.514 68.0527 159.207 68.3992L159.654 67.5048ZM156.887 66.876C155.855 66.876 154.904 67.0915 154.043 67.5306L154.498 68.4214C155.205 68.0605 155.998 67.876 156.887 67.876V66.876ZM154.04 67.5325C153.21 67.9648 152.493 68.5528 151.891 69.2924L152.666 69.9236C153.184 69.2872 153.795 68.7872 154.502 68.4195L154.04 67.5325ZM151.89 69.2934C151.309 70.0109 150.858 70.8206 150.536 71.7193L151.477 72.0567C151.763 71.2594 152.16 70.5491 152.667 69.9226L151.89 69.2934ZM150.533 71.7272C150.228 72.6261 150.075 73.5443 150.075 74.48H151.075C151.075 73.6557 151.209 72.8459 151.48 72.0488L150.533 71.7272ZM179.533 67.448V67.948H180.033V67.448H179.533ZM173.461 67.448V66.948H172.961V67.448H173.461ZM173.461 83V83.5H173.961V83H173.461ZM171.781 83H171.281V83.5H171.781V83ZM171.781 67.448H172.281V66.948H171.781V67.448ZM165.709 67.448H165.209V67.948H165.709V67.448ZM165.709 65.96V65.46H165.209V65.96H165.709ZM179.533 65.96H180.033V65.46H179.533V65.96ZM179.533 66.948H173.461V67.948H179.533V66.948ZM172.961 67.448V83H173.961V67.448H172.961ZM173.461 82.5H171.781V83.5H173.461V82.5ZM172.281 83V67.448H171.281V83H172.281ZM171.781 66.948H165.709V67.948H171.781V66.948ZM166.209 67.448V65.96H165.209V67.448H166.209ZM165.709 66.46H179.533V65.46H165.709V66.46ZM179.033 65.96V67.448H180.033V65.96H179.033ZM185.076 82.4L184.849 82.8458L184.855 82.8487L185.076 82.4ZM182.556 80.432L182.934 80.1054L182.556 80.432ZM180.924 77.672L180.455 77.8452L180.456 77.8476L180.924 77.672ZM180.948 71.24L181.413 71.4219L181.414 71.4195L180.948 71.24ZM182.628 68.48L182.256 68.1451L182.256 68.1455L182.628 68.48ZM185.196 66.56L185.41 67.0116L185.416 67.0087L185.196 66.56ZM191.604 66.584L191.377 67.0297L191.604 66.584ZM194.124 68.576L193.742 68.899L193.746 68.9032L194.124 68.576ZM195.756 71.36L195.285 71.5291L195.288 71.5356L195.756 71.36ZM195.732 77.768L196.197 77.9499L196.198 77.9475L195.732 77.768ZM194.052 80.528L194.423 80.8625L194.427 80.8588L194.052 80.528ZM191.508 82.424L191.722 82.8756L191.508 82.424ZM182.484 77.144L182.954 76.9753L182.484 77.144ZM183.78 79.424L183.396 79.7441L183.78 79.424ZM185.772 81.032L185.541 81.4756L185.552 81.481L185.772 81.032ZM190.956 81.008L191.187 81.4515L191.19 81.4497L190.956 81.008ZM192.948 79.352L192.56 79.0363L192.555 79.0419L192.948 79.352ZM194.22 77.072L194.692 77.2356L194.693 77.2328L194.22 77.072ZM194.196 71.816L193.725 71.9847L194.196 71.816ZM192.876 69.536L192.492 69.8561L192.496 69.8614L192.876 69.536ZM185.724 67.976L185.496 67.5306L185.493 67.5325L185.724 67.976ZM183.732 69.608L183.344 69.2924L183.343 69.2934L183.732 69.608ZM182.46 71.888L181.989 71.7192L181.986 71.7272L182.46 71.888ZM188.34 82.62C187.208 82.62 186.197 82.3942 185.296 81.9513L184.855 82.8487C185.907 83.3658 187.071 83.62 188.34 83.62V82.62ZM185.302 81.9543C184.383 81.4872 183.595 80.8714 182.934 80.1054L182.177 80.7586C182.924 81.6246 183.816 82.3208 184.849 82.8457L185.302 81.9543ZM182.934 80.1054C182.269 79.3347 181.755 78.466 181.392 77.4964L180.456 77.8476C180.86 78.926 181.434 79.8973 182.177 80.7586L182.934 80.1054ZM181.393 77.4988C181.029 76.5132 180.848 75.5078 180.848 74.48H179.848C179.848 75.6282 180.051 76.7508 180.455 77.8452L181.393 77.4988ZM180.848 74.48C180.848 73.4041 181.037 72.386 181.413 71.4219L180.482 71.0581C180.059 72.142 179.848 73.2839 179.848 74.48H180.848ZM181.414 71.4195C181.793 70.4345 182.322 69.5675 182.999 68.8145L182.256 68.1455C181.494 68.9925 180.902 69.9655 180.481 71.0605L181.414 71.4195ZM182.999 68.8149C183.692 68.0469 184.495 67.4469 185.41 67.0116L184.981 66.1084C183.945 66.6011 183.036 67.2811 182.256 68.1451L182.999 68.8149ZM185.416 67.0087C186.321 66.564 187.301 66.34 188.364 66.34V65.34C187.155 65.34 186.023 65.596 184.975 66.1113L185.416 67.0087ZM188.364 66.34C189.476 66.34 190.477 66.5723 191.377 67.0297L191.83 66.1383C190.778 65.6037 189.62 65.34 188.364 65.34V66.34ZM191.377 67.0297C192.294 67.4957 193.081 68.1181 193.742 68.899L194.505 68.253C193.758 67.3699 192.865 66.6643 191.83 66.1383L191.377 67.0297ZM193.746 68.9032C194.426 69.6892 194.938 70.5637 195.285 71.5291L196.226 71.1909C195.837 70.1083 195.262 69.1268 194.502 68.2488L193.746 68.9032ZM195.288 71.5356C195.651 72.5046 195.832 73.4932 195.832 74.504H196.832C196.832 73.3708 196.628 72.2634 196.224 71.1844L195.288 71.5356ZM195.832 74.504C195.832 75.5799 195.643 76.6069 195.265 77.5885L196.198 77.9475C196.621 76.8491 196.832 75.7001 196.832 74.504H195.832ZM195.266 77.5861C194.887 78.5561 194.358 79.4256 193.677 80.1972L194.427 80.8588C195.186 79.9984 195.776 79.0279 196.197 77.9499L195.266 77.5861ZM193.68 80.1935C193.004 80.9443 192.21 81.5366 191.293 81.9724L191.722 82.8756C192.758 82.3834 193.659 81.7117 194.423 80.8625L193.68 80.1935ZM191.293 81.9724C190.388 82.4029 189.405 82.62 188.34 82.62V83.62C189.546 83.62 190.676 83.3731 191.722 82.8756L191.293 81.9724ZM181.528 74.48C181.528 75.4638 181.689 76.409 182.013 77.3127L182.954 76.9753C182.67 76.183 182.528 75.3522 182.528 74.48H181.528ZM182.013 77.3127C182.336 78.2142 182.797 79.0258 183.396 79.7441L184.164 79.1039C183.642 78.4782 183.239 77.7698 182.954 76.9753L182.013 77.3127ZM183.396 79.7441C183.998 80.4664 184.713 81.0446 185.541 81.4755L186.003 80.5885C185.294 80.2194 184.682 79.7256 184.164 79.1039L183.396 79.7441ZM185.552 81.481C186.409 81.9007 187.34 82.108 188.34 82.108V81.108C187.483 81.108 186.703 80.9313 185.992 80.583L185.552 81.481ZM188.34 82.108C189.386 82.108 190.339 81.8931 191.187 81.4515L190.725 80.5645C190.037 80.9229 189.246 81.108 188.34 81.108V82.108ZM191.19 81.4497C192.034 81.0016 192.752 80.4051 193.34 79.6621L192.555 79.0419C192.055 79.6749 191.445 80.1824 190.721 80.5663L191.19 81.4497ZM193.335 79.6676C193.932 78.9346 194.385 78.1232 194.692 77.2356L193.747 76.9084C193.478 77.6848 193.083 78.3934 192.56 79.0364L193.335 79.6676ZM194.693 77.2328C194.998 76.3339 195.152 75.4157 195.152 74.48H194.152C194.152 75.3043 194.017 76.1141 193.746 76.9112L194.693 77.2328ZM195.152 74.48C195.152 73.4962 194.99 72.551 194.666 71.6473L193.725 71.9847C194.009 72.777 194.152 73.6078 194.152 74.48H195.152ZM194.666 71.6473C194.342 70.743 193.872 69.9297 193.255 69.2106L192.496 69.8614C193.032 70.4863 193.441 71.193 193.725 71.9847L194.666 71.6473ZM193.26 69.2159C192.657 68.4919 191.938 67.9202 191.107 67.5048L190.66 68.3992C191.365 68.7518 191.975 69.2361 192.492 69.8561L193.26 69.2159ZM191.107 67.5048C190.264 67.0833 189.339 66.876 188.34 66.876V67.876C189.196 67.876 189.967 68.0527 190.66 68.3992L191.107 67.5048ZM188.34 66.876C187.308 66.876 186.357 67.0915 185.496 67.5306L185.951 68.4214C186.658 68.0605 187.451 67.876 188.34 67.876V66.876ZM185.493 67.5325C184.663 67.9648 183.946 68.5528 183.344 69.2924L184.119 69.9236C184.638 69.2872 185.249 68.7872 185.955 68.4195L185.493 67.5325ZM183.343 69.2934C182.762 70.0109 182.311 70.8206 181.989 71.7193L182.93 72.0567C183.216 71.2594 183.613 70.5491 184.12 69.9226L183.343 69.2934ZM181.986 71.7272C181.681 72.6261 181.528 73.5443 181.528 74.48H182.528C182.528 73.6557 182.662 72.8459 182.933 72.0488L181.986 71.7272ZM199.499 83H198.999V83.5H199.499V83ZM199.499 65.96V65.46H198.999V65.96H199.499ZM212.363 65.96H212.863V65.46H212.363V65.96ZM212.363 83V83.5H212.863V83H212.363ZM210.683 83H210.183V83.5H210.683V83ZM210.683 67.448H211.183V66.948H210.683V67.448ZM201.179 67.448V66.948H200.679V67.448H201.179ZM201.179 83V83.5H201.679V83H201.179ZM199.999 83V65.96H198.999V83H199.999ZM199.499 66.46H212.363V65.46H199.499V66.46ZM211.863 65.96V83H212.863V65.96H211.863ZM212.363 82.5H210.683V83.5H212.363V82.5ZM211.183 83V67.448H210.183V83H211.183ZM210.683 66.948H201.179V67.948H210.683V66.948ZM200.679 67.448V83H201.679V67.448H200.679ZM201.179 82.5H199.499V83.5H201.179V82.5ZM228.152 83H227.652V83.5H228.152V83ZM228.152 67.448H228.652V66.948H228.152V67.448ZM221.192 67.448V66.948H220.705L220.692 67.4347L221.192 67.448ZM221.096 71.048L221.596 71.065L221.596 71.0613L221.096 71.048ZM219.512 80.576L219.954 80.8092L219.956 80.8059L219.512 80.576ZM217.784 82.472L218.024 82.9106L218.028 82.9086L217.784 82.472ZM215.408 83.024H214.908V83.524H215.408V83.024ZM215.408 81.536V81.036H214.908V81.536H215.408ZM217.064 81.056L217.341 81.472L217.064 81.056ZM218.288 79.376L217.827 79.1824L218.288 79.376ZM219.08 76.064L218.585 75.9917L218.585 75.9964L219.08 76.064ZM219.488 70.664L218.988 70.6487L218.988 70.6493L219.488 70.664ZM219.632 65.96V65.46H219.147L219.132 65.9447L219.632 65.96ZM229.808 65.96H230.308V65.46H229.808V65.96ZM229.808 83V83.5H230.308V83H229.808ZM228.652 83V67.448H227.652V83H228.652ZM228.152 66.948H221.192V67.948H228.152V66.948ZM220.692 67.4347L220.596 71.0347L221.596 71.0613L221.692 67.4613L220.692 67.4347ZM220.596 71.031C220.517 73.3709 220.35 75.2996 220.099 76.8226L221.085 76.9854C221.346 75.4044 221.515 73.4291 221.596 71.065L220.596 71.031ZM220.099 76.8226C219.847 78.3484 219.498 79.5152 219.068 80.3461L219.956 80.8059C220.454 79.8448 220.825 78.5636 221.085 76.9854L220.099 76.8226ZM219.07 80.3428C218.639 81.1596 218.124 81.7095 217.54 82.0354L218.028 82.9086C218.82 82.4665 219.457 81.7524 219.954 80.8092L219.07 80.3428ZM217.544 82.0335C216.958 82.3541 216.252 82.524 215.408 82.524V83.524C216.388 83.524 217.266 83.3259 218.024 82.9105L217.544 82.0335ZM215.908 83.024V81.536H214.908V83.024H215.908ZM215.408 82.036C216.122 82.036 216.772 81.8513 217.341 81.472L216.787 80.64C216.395 80.9007 215.942 81.036 215.408 81.036V82.036ZM217.341 81.472C217.935 81.0765 218.393 80.4174 218.749 79.5696L217.827 79.1824C217.511 79.9346 217.153 80.3955 216.787 80.64L217.341 81.472ZM218.749 79.5696C219.109 78.7119 219.381 77.5591 219.575 76.1316L218.585 75.9964C218.395 77.3849 218.139 78.4401 217.827 79.1824L218.749 79.5696ZM219.575 76.1363C219.787 74.6862 219.923 72.8653 219.988 70.6787L218.988 70.6493C218.924 72.8147 218.789 74.5938 218.585 75.9917L219.575 76.1363ZM219.988 70.6793L220.132 65.9753L219.132 65.9447L218.988 70.6487L219.988 70.6793ZM219.632 66.46H229.808V65.46H219.632V66.46ZM229.308 65.96V83H230.308V65.96H229.308ZM229.808 82.5H228.152V83.5H229.808V82.5ZM245.517 81.512H246.017V81.012H245.517V81.512ZM245.517 83V83.5H246.017V83H245.517ZM234.069 83H233.569V83.5H234.069V83ZM234.069 65.96V65.46H233.569V65.96H234.069ZM245.301 65.96H245.801V65.46H245.301V65.96ZM245.301 67.448V67.948H245.801V67.448H245.301ZM235.749 67.448V66.948H235.249V67.448H235.749ZM235.749 73.592H235.249V74.092H235.749V73.592ZM244.077 73.592H244.577V73.092H244.077V73.592ZM244.077 75.008V75.508H244.577V75.008H244.077ZM235.749 75.008V74.508H235.249V75.008H235.749ZM235.749 81.512H235.249V82.012H235.749V81.512ZM245.017 81.512V83H246.017V81.512H245.017ZM245.517 82.5H234.069V83.5H245.517V82.5ZM234.569 83V65.96H233.569V83H234.569ZM234.069 66.46H245.301V65.46H234.069V66.46ZM244.801 65.96V67.448H245.801V65.96H244.801ZM245.301 66.948H235.749V67.948H245.301V66.948ZM235.249 67.448V73.592H236.249V67.448H235.249ZM235.749 74.092H244.077V73.092H235.749V74.092ZM243.577 73.592V75.008H244.577V73.592H243.577ZM244.077 74.508H235.749V75.508H244.077V74.508ZM235.249 75.008V81.512H236.249V75.008H235.249ZM235.749 82.012H245.517V81.012H235.749V82.012ZM262.134 65.96H262.634V65.46H262.134V65.96ZM262.134 83V83.5H262.634V83H262.134ZM260.478 83H259.978V83.5H260.478V83ZM260.478 75.032H260.978V74.532H260.478V75.032ZM250.374 75.032V74.532H249.874V75.032H250.374ZM250.374 83V83.5H250.874V83H250.374ZM248.694 83H248.194V83.5H248.694V83ZM248.694 65.96V65.46H248.194V65.96H248.694ZM250.374 65.96H250.874V65.46H250.374V65.96ZM250.374 73.544H249.874V74.044H250.374V73.544ZM260.478 73.544V74.044H260.978V73.544H260.478ZM260.478 65.96V65.46H259.978V65.96H260.478ZM261.634 65.96V83H262.634V65.96H261.634ZM262.134 82.5H260.478V83.5H262.134V82.5ZM260.978 83V75.032H259.978V83H260.978ZM260.478 74.532H250.374V75.532H260.478V74.532ZM249.874 75.032V83H250.874V75.032H249.874ZM250.374 82.5H248.694V83.5H250.374V82.5ZM249.194 83V65.96H248.194V83H249.194ZM248.694 66.46H250.374V65.46H248.694V66.46ZM249.874 65.96V73.544H250.874V65.96H249.874ZM250.374 74.044H260.478V73.044H250.374V74.044ZM260.978 73.544V65.96H259.978V73.544H260.978ZM260.478 66.46H262.134V65.46H260.478V66.46ZM266.509 83H266.009V83.5H266.509V83ZM266.509 65.96V65.46H266.009V65.96H266.509ZM268.165 65.96H268.665V65.46H268.165V65.96ZM268.165 80.696H267.665V82.2521L268.572 80.9872L268.165 80.696ZM278.725 65.96V65.46H278.468L278.319 65.6688L278.725 65.96ZM280.285 65.96H280.785V65.46H280.285V65.96ZM280.285 83V83.5H280.785V83H280.285ZM278.629 83H278.129V83.5H278.629V83ZM278.629 68.528H279.129V66.9803L278.224 68.2355L278.629 68.528ZM268.189 83V83.5H268.445L268.595 83.2925L268.189 83ZM267.009 83V65.96H266.009V83H267.009ZM266.509 66.46H268.165V65.46H266.509V66.46ZM267.665 65.96V80.696H268.665V65.96H267.665ZM268.572 80.9872L279.132 66.2512L278.319 65.6688L267.759 80.4048L268.572 80.9872ZM278.725 66.46H280.285V65.46H278.725V66.46ZM279.785 65.96V83H280.785V65.96H279.785ZM280.285 82.5H278.629V83.5H280.285V82.5ZM279.129 83V68.528H278.129V83H279.129ZM278.224 68.2355L267.784 82.7075L268.595 83.2925L279.035 68.8205L278.224 68.2355ZM268.189 82.5H266.509V83.5H268.189V82.5ZM296.096 81.512H296.596V81.012H296.096V81.512ZM296.096 83V83.5H296.596V83H296.096ZM284.648 83H284.148V83.5H284.648V83ZM284.648 65.96V65.46H284.148V65.96H284.648ZM295.88 65.96H296.38V65.46H295.88V65.96ZM295.88 67.448V67.948H296.38V67.448H295.88ZM286.328 67.448V66.948H285.828V67.448H286.328ZM286.328 73.592H285.828V74.092H286.328V73.592ZM294.656 73.592H295.156V73.092H294.656V73.592ZM294.656 75.008V75.508H295.156V75.008H294.656ZM286.328 75.008V74.508H285.828V75.008H286.328ZM286.328 81.512H285.828V82.012H286.328V81.512ZM295.596 81.512V83H296.596V81.512H295.596ZM296.096 82.5H284.648V83.5H296.096V82.5ZM285.148 83V65.96H284.148V83H285.148ZM284.648 66.46H295.88V65.46H284.648V66.46ZM295.38 65.96V67.448H296.38V65.96H295.38ZM295.88 66.948H286.328V67.948H295.88V66.948ZM285.828 67.448V73.592H286.828V67.448H285.828ZM286.328 74.092H294.656V73.092H286.328V74.092ZM294.156 73.592V75.008H295.156V73.592H294.156ZM294.656 74.508H286.328V75.508H294.656V74.508ZM285.828 75.008V81.512H286.828V75.008H285.828ZM286.328 82.012H296.096V81.012H286.328V82.012Z" fill="black"/>
</svg>
