<svg width="450" height="150" viewBox="0 0 450 150" fill="none" xmlns="http://www.w3.org/2000/svg">
<rect x="0.494629" width="449.505" height="150" fill="white" fill-opacity="0.9"/>
<path d="M140.576 65.96V83H138.92V75.032H128.816V83H127.136V65.96H128.816V73.544H138.92V65.96H140.576ZM150.135 65.96H151.551L158.631 83H156.855L154.647 77.672H146.991L144.807 83H143.007L150.135 65.96ZM154.263 76.352L150.831 67.928L147.351 76.352H154.263ZM161.074 83V65.96H162.754V81.512H169.498V65.96H171.178V81.512H177.946V65.96H179.602V83H161.074ZM183.974 83V65.96H185.63V80.696L196.19 65.96H197.75V83H196.094V68.528L185.654 83H183.974ZM215.094 83.12C213.894 83.12 212.806 82.88 211.83 82.4C210.854 81.904 210.014 81.248 209.31 80.432C208.606 79.616 208.062 78.696 207.678 77.672C207.294 76.632 207.102 75.568 207.102 74.48C207.102 73.344 207.302 72.264 207.702 71.24C208.102 70.2 208.662 69.28 209.382 68.48C210.118 67.664 210.974 67.024 211.95 66.56C212.926 66.08 213.982 65.84 215.118 65.84C216.302 65.84 217.382 66.088 218.358 66.584C219.334 67.08 220.174 67.744 220.878 68.576C221.598 69.408 222.142 70.336 222.51 71.36C222.894 72.384 223.086 73.432 223.086 74.504C223.086 75.64 222.886 76.728 222.486 77.768C222.086 78.792 221.526 79.712 220.806 80.528C220.086 81.328 219.238 81.96 218.262 82.424C217.286 82.888 216.23 83.12 215.094 83.12ZM208.782 74.48C208.782 75.408 208.934 76.296 209.238 77.144C209.542 77.992 209.974 78.752 210.534 79.424C211.094 80.096 211.758 80.632 212.526 81.032C213.31 81.416 214.166 81.608 215.094 81.608C216.07 81.608 216.942 81.408 217.71 81.008C218.494 80.592 219.158 80.04 219.702 79.352C220.262 78.664 220.686 77.904 220.974 77.072C221.262 76.224 221.406 75.36 221.406 74.48C221.406 73.552 221.254 72.664 220.95 71.816C220.646 70.968 220.206 70.208 219.63 69.536C219.07 68.864 218.406 68.336 217.638 67.952C216.87 67.568 216.022 67.376 215.094 67.376C214.134 67.376 213.262 67.576 212.478 67.976C211.71 68.376 211.046 68.92 210.486 69.608C209.942 70.28 209.518 71.04 209.214 71.888C208.926 72.736 208.782 73.6 208.782 74.48ZM226.253 83V65.96H237.677V67.448H227.933V73.376H233.549C235.421 73.376 236.805 73.816 237.701 74.696C238.597 75.56 239.045 76.688 239.045 78.08C239.045 78.992 238.845 79.824 238.445 80.576C238.061 81.312 237.469 81.904 236.669 82.352C235.869 82.784 234.877 83 233.693 83H226.253ZM227.933 81.512H233.501C234.413 81.512 235.149 81.344 235.709 81.008C236.285 80.672 236.701 80.24 236.957 79.712C237.213 79.168 237.341 78.608 237.341 78.032C237.341 77.456 237.229 76.92 237.005 76.424C236.781 75.912 236.381 75.504 235.805 75.2C235.245 74.88 234.453 74.72 233.429 74.72H227.933V81.512ZM244.789 83V67.4H240.229V65.96H246.445V72.584H250.597C252.453 72.584 253.837 73.064 254.749 74.024C255.677 74.984 256.141 76.24 256.141 77.792C256.141 78.752 255.933 79.632 255.517 80.432C255.117 81.216 254.517 81.84 253.717 82.304C252.917 82.768 251.917 83 250.717 83H244.789ZM246.445 81.584H250.525C251.453 81.584 252.205 81.408 252.781 81.056C253.357 80.688 253.773 80.216 254.029 79.64C254.301 79.064 254.437 78.448 254.437 77.792C254.437 77.136 254.317 76.52 254.077 75.944C253.853 75.352 253.445 74.88 252.853 74.528C252.277 74.176 251.485 74 250.477 74H246.445V81.584ZM270.678 81.512V83H259.23V65.96H270.462V67.448H260.91V73.592H269.238V75.008H260.91V81.512H270.678ZM273.855 83V65.96H275.535V73.544H278.103L283.959 65.96H285.903L279.495 74.216L286.311 83H284.247L278.151 75.08H275.535V83H273.855ZM301.162 67.448H295.09V83H293.41V67.448H287.338V65.96H301.162V67.448ZM303.714 83V65.96H305.394V72.584H309.714C311.554 72.584 312.93 73.064 313.842 74.024C314.77 74.984 315.234 76.24 315.234 77.792C315.234 78.752 315.034 79.632 314.634 80.432C314.234 81.216 313.626 81.84 312.81 82.304C312.01 82.768 311.018 83 309.834 83H303.714ZM318.21 83V65.984H319.866V83H318.21ZM305.394 81.584H309.618C310.562 81.584 311.322 81.408 311.898 81.056C312.474 80.688 312.89 80.216 313.146 79.64C313.418 79.064 313.554 78.448 313.554 77.792C313.554 77.136 313.434 76.52 313.194 75.944C312.954 75.352 312.546 74.88 311.97 74.528C311.394 74.176 310.602 74 309.594 74H305.394V81.584Z" fill="black"/>
<path d="M140.576 65.96H141.076V65.46H140.576V65.96ZM140.576 83V83.5H141.076V83H140.576ZM138.92 83H138.42V83.5H138.92V83ZM138.92 75.032H139.42V74.532H138.92V75.032ZM128.816 75.032V74.532H128.316V75.032H128.816ZM128.816 83V83.5H129.316V83H128.816ZM127.136 83H126.636V83.5H127.136V83ZM127.136 65.96V65.46H126.636V65.96H127.136ZM128.816 65.96H129.316V65.46H128.816V65.96ZM128.816 73.544H128.316V74.044H128.816V73.544ZM138.92 73.544V74.044H139.42V73.544H138.92ZM138.92 65.96V65.46H138.42V65.96H138.92ZM140.076 65.96V83H141.076V65.96H140.076ZM140.576 82.5H138.92V83.5H140.576V82.5ZM139.42 83V75.032H138.42V83H139.42ZM138.92 74.532H128.816V75.532H138.92V74.532ZM128.316 75.032V83H129.316V75.032H128.316ZM128.816 82.5H127.136V83.5H128.816V82.5ZM127.636 83V65.96H126.636V83H127.636ZM127.136 66.46H128.816V65.46H127.136V66.46ZM128.316 65.96V73.544H129.316V65.96H128.316ZM128.816 74.044H138.92V73.044H128.816V74.044ZM139.42 73.544V65.96H138.42V73.544H139.42ZM138.92 66.46H140.576V65.46H138.92V66.46ZM150.135 65.96V65.46H149.802L149.673 65.767L150.135 65.96ZM151.551 65.96L152.012 65.7682L151.884 65.46H151.551V65.96ZM158.631 83V83.5H159.38L159.092 82.8082L158.631 83ZM156.855 83L156.393 83.1914L156.521 83.5H156.855V83ZM154.647 77.672L155.109 77.4806L154.981 77.172H154.647V77.672ZM146.991 77.672V77.172H146.655L146.528 77.4824L146.991 77.672ZM144.807 83V83.5H145.142L145.269 83.1896L144.807 83ZM143.007 83L142.545 82.807L142.256 83.5H143.007V83ZM154.263 76.352V76.852H155.006L154.726 76.1634L154.263 76.352ZM150.831 67.928L151.294 67.7394L150.834 66.6107L150.369 67.7371L150.831 67.928ZM147.351 76.352L146.889 76.1611L146.603 76.852H147.351V76.352ZM150.135 66.46H151.551V65.46H150.135V66.46ZM151.089 66.1518L158.169 83.1918L159.092 82.8082L152.012 65.7682L151.089 66.1518ZM158.631 82.5H156.855V83.5H158.631V82.5ZM157.317 82.8086L155.109 77.4806L154.185 77.8634L156.393 83.1914L157.317 82.8086ZM154.647 77.172H146.991V78.172H154.647V77.172ZM146.528 77.4824L144.344 82.8104L145.269 83.1896L147.453 77.8616L146.528 77.4824ZM144.807 82.5H143.007V83.5H144.807V82.5ZM143.468 83.193L150.596 66.153L149.673 65.767L142.545 82.807L143.468 83.193ZM154.726 76.1634L151.294 67.7394L150.368 68.1166L153.8 76.5406L154.726 76.1634ZM150.369 67.7371L146.889 76.1611L147.813 76.5429L151.293 68.1189L150.369 67.7371ZM147.351 76.852H154.263V75.852H147.351V76.852ZM161.074 83H160.574V83.5H161.074V83ZM161.074 65.96V65.46H160.574V65.96H161.074ZM162.754 65.96H163.254V65.46H162.754V65.96ZM162.754 81.512H162.254V82.012H162.754V81.512ZM169.498 81.512V82.012H169.998V81.512H169.498ZM169.498 65.96V65.46H168.998V65.96H169.498ZM171.178 65.96H171.678V65.46H171.178V65.96ZM171.178 81.512H170.678V82.012H171.178V81.512ZM177.946 81.512V82.012H178.446V81.512H177.946ZM177.946 65.96V65.46H177.446V65.96H177.946ZM179.602 65.96H180.102V65.46H179.602V65.96ZM179.602 83V83.5H180.102V83H179.602ZM161.574 83V65.96H160.574V83H161.574ZM161.074 66.46H162.754V65.46H161.074V66.46ZM162.254 65.96V81.512H163.254V65.96H162.254ZM162.754 82.012H169.498V81.012H162.754V82.012ZM169.998 81.512V65.96H168.998V81.512H169.998ZM169.498 66.46H171.178V65.46H169.498V66.46ZM170.678 65.96V81.512H171.678V65.96H170.678ZM171.178 82.012H177.946V81.012H171.178V82.012ZM178.446 81.512V65.96H177.446V81.512H178.446ZM177.946 66.46H179.602V65.46H177.946V66.46ZM179.102 65.96V83H180.102V65.96H179.102ZM179.602 82.5H161.074V83.5H179.602V82.5ZM183.974 83H183.474V83.5H183.974V83ZM183.974 65.96V65.46H183.474V65.96H183.974ZM185.63 65.96H186.13V65.46H185.63V65.96ZM185.63 80.696H185.13V82.2521L186.037 80.9872L185.63 80.696ZM196.19 65.96V65.46H195.933L195.784 65.6688L196.19 65.96ZM197.75 65.96H198.25V65.46H197.75V65.96ZM197.75 83V83.5H198.25V83H197.75ZM196.094 83H195.594V83.5H196.094V83ZM196.094 68.528H196.594V66.9803L195.689 68.2355L196.094 68.528ZM185.654 83V83.5H185.91L186.06 83.2925L185.654 83ZM184.474 83V65.96H183.474V83H184.474ZM183.974 66.46H185.63V65.46H183.974V66.46ZM185.13 65.96V80.696H186.13V65.96H185.13ZM186.037 80.9872L196.597 66.2512L195.784 65.6688L185.224 80.4048L186.037 80.9872ZM196.19 66.46H197.75V65.46H196.19V66.46ZM197.25 65.96V83H198.25V65.96H197.25ZM197.75 82.5H196.094V83.5H197.75V82.5ZM196.594 83V68.528H195.594V83H196.594ZM195.689 68.2355L185.249 82.7075L186.06 83.2925L196.5 68.8205L195.689 68.2355ZM185.654 82.5H183.974V83.5H185.654V82.5ZM211.83 82.4L211.603 82.8458L211.609 82.8487L211.83 82.4ZM209.31 80.432L209.688 80.1054L209.31 80.432ZM207.678 77.672L207.209 77.8452L207.21 77.8476L207.678 77.672ZM207.702 71.24L208.167 71.4219L208.168 71.4195L207.702 71.24ZM209.382 68.48L209.01 68.1451L209.01 68.1455L209.382 68.48ZM211.95 66.56L212.164 67.0116L212.17 67.0087L211.95 66.56ZM218.358 66.584L218.131 67.0297L218.358 66.584ZM220.878 68.576L220.496 68.899L220.5 68.9032L220.878 68.576ZM222.51 71.36L222.039 71.5291L222.042 71.5356L222.51 71.36ZM222.486 77.768L222.951 77.9499L222.952 77.9475L222.486 77.768ZM220.806 80.528L221.177 80.8625L221.181 80.8588L220.806 80.528ZM218.262 82.424L218.476 82.8756L218.262 82.424ZM209.238 77.144L209.708 76.9753L209.238 77.144ZM210.534 79.424L210.15 79.7441L210.534 79.424ZM212.526 81.032L212.295 81.4756L212.306 81.481L212.526 81.032ZM217.71 81.008L217.941 81.4515L217.944 81.4497L217.71 81.008ZM219.702 79.352L219.314 79.0363L219.31 79.0419L219.702 79.352ZM220.974 77.072L221.446 77.2356L221.447 77.2328L220.974 77.072ZM220.95 71.816L220.479 71.9847L220.95 71.816ZM219.63 69.536L219.246 69.8561L219.25 69.8614L219.63 69.536ZM212.478 67.976L212.251 67.5306L212.247 67.5325L212.478 67.976ZM210.486 69.608L210.098 69.2924L210.097 69.2934L210.486 69.608ZM209.214 71.888L208.743 71.7192L208.74 71.7272L209.214 71.888ZM215.094 82.62C213.962 82.62 212.951 82.3942 212.05 81.9513L211.609 82.8487C212.661 83.3658 213.825 83.62 215.094 83.62V82.62ZM212.056 81.9543C211.137 81.4872 210.349 80.8714 209.688 80.1054L208.931 80.7586C209.678 81.6246 210.57 82.3208 211.603 82.8457L212.056 81.9543ZM209.688 80.1054C209.023 79.3347 208.51 78.466 208.146 77.4964L207.21 77.8476C207.614 78.926 208.188 79.8973 208.931 80.7586L209.688 80.1054ZM208.147 77.4988C207.783 76.5132 207.602 75.5078 207.602 74.48H206.602C206.602 75.6282 206.805 76.7508 207.209 77.8452L208.147 77.4988ZM207.602 74.48C207.602 73.4041 207.791 72.386 208.167 71.4219L207.236 71.0581C206.813 72.142 206.602 73.2839 206.602 74.48H207.602ZM208.168 71.4195C208.547 70.4345 209.076 69.5675 209.753 68.8145L209.01 68.1455C208.248 68.9925 207.656 69.9655 207.235 71.0605L208.168 71.4195ZM209.753 68.8149C210.446 68.0469 211.249 67.4469 212.164 67.0116L211.735 66.1084C210.699 66.6011 209.79 67.2811 209.01 68.1451L209.753 68.8149ZM212.17 67.0087C213.075 66.564 214.055 66.34 215.118 66.34V65.34C213.909 65.34 212.777 65.596 211.729 66.1113L212.17 67.0087ZM215.118 66.34C216.23 66.34 217.231 66.5723 218.131 67.0297L218.584 66.1383C217.532 65.6037 216.374 65.34 215.118 65.34V66.34ZM218.131 67.0297C219.048 67.4957 219.835 68.1181 220.496 68.899L221.259 68.253C220.512 67.3699 219.619 66.6643 218.584 66.1383L218.131 67.0297ZM220.5 68.9032C221.18 69.6892 221.692 70.5637 222.039 71.5291L222.98 71.1909C222.591 70.1083 222.016 69.1268 221.256 68.2488L220.5 68.9032ZM222.042 71.5356C222.405 72.5046 222.586 73.4932 222.586 74.504H223.586C223.586 73.3708 223.383 72.2634 222.978 71.1844L222.042 71.5356ZM222.586 74.504C222.586 75.5799 222.397 76.6069 222.019 77.5885L222.952 77.9475C223.375 76.8491 223.586 75.7001 223.586 74.504H222.586ZM222.02 77.5861C221.641 78.5561 221.112 79.4256 220.431 80.1972L221.181 80.8588C221.94 79.9984 222.53 79.0279 222.951 77.9499L222.02 77.5861ZM220.434 80.1935C219.758 80.9443 218.964 81.5366 218.047 81.9724L218.476 82.8756C219.512 82.3834 220.413 81.7117 221.177 80.8625L220.434 80.1935ZM218.047 81.9724C217.142 82.4029 216.159 82.62 215.094 82.62V83.62C216.3 83.62 217.43 83.3731 218.476 82.8756L218.047 81.9724ZM208.282 74.48C208.282 75.4638 208.443 76.409 208.767 77.3127L209.708 76.9753C209.424 76.183 209.282 75.3522 209.282 74.48H208.282ZM208.767 77.3127C209.09 78.2142 209.551 79.0258 210.15 79.7441L210.918 79.1039C210.396 78.4782 209.993 77.7698 209.708 76.9753L208.767 77.3127ZM210.15 79.7441C210.752 80.4664 211.467 81.0446 212.295 81.4755L212.757 80.5885C212.048 80.2194 211.436 79.7256 210.918 79.1039L210.15 79.7441ZM212.306 81.481C213.163 81.9007 214.094 82.108 215.094 82.108V81.108C214.237 81.108 213.457 80.9313 212.746 80.583L212.306 81.481ZM215.094 82.108C216.14 82.108 217.093 81.8931 217.941 81.4515L217.479 80.5645C216.791 80.9229 216 81.108 215.094 81.108V82.108ZM217.944 81.4497C218.789 81.0016 219.506 80.4051 220.094 79.6621L219.31 79.0419C218.809 79.6749 218.199 80.1824 217.475 80.5663L217.944 81.4497ZM220.09 79.6676C220.686 78.9346 221.139 78.1232 221.446 77.2356L220.501 76.9084C220.233 77.6848 219.837 78.3934 219.314 79.0364L220.09 79.6676ZM221.447 77.2328C221.752 76.3339 221.906 75.4157 221.906 74.48H220.906C220.906 75.3043 220.771 76.1141 220.5 76.9112L221.447 77.2328ZM221.906 74.48C221.906 73.4962 221.744 72.551 221.42 71.6473L220.479 71.9847C220.763 72.777 220.906 73.6078 220.906 74.48H221.906ZM221.42 71.6473C221.096 70.743 220.626 69.9297 220.009 69.2106L219.25 69.8614C219.786 70.4863 220.195 71.193 220.479 71.9847L221.42 71.6473ZM220.014 69.2159C219.411 68.4919 218.692 67.9202 217.861 67.5048L217.414 68.3992C218.119 68.7518 218.729 69.2361 219.246 69.8561L220.014 69.2159ZM217.861 67.5048C217.018 67.0833 216.093 66.876 215.094 66.876V67.876C215.951 67.876 216.721 68.0527 217.414 68.3992L217.861 67.5048ZM215.094 66.876C214.062 66.876 213.111 67.0915 212.251 67.5306L212.705 68.4214C213.412 68.0605 214.205 67.876 215.094 67.876V66.876ZM212.247 67.5325C211.417 67.9648 210.7 68.5528 210.098 69.2924L210.874 69.9236C211.392 69.2872 212.003 68.7872 212.709 68.4195L212.247 67.5325ZM210.097 69.2934C209.516 70.0109 209.065 70.8206 208.743 71.7193L209.684 72.0567C209.97 71.2594 210.367 70.5491 210.874 69.9226L210.097 69.2934ZM208.74 71.7272C208.435 72.6261 208.282 73.5443 208.282 74.48H209.282C209.282 73.6557 209.416 72.8459 209.687 72.0488L208.74 71.7272ZM226.253 83H225.753V83.5H226.253V83ZM226.253 65.96V65.46H225.753V65.96H226.253ZM237.677 65.96H238.177V65.46H237.677V65.96ZM237.677 67.448V67.948H238.177V67.448H237.677ZM227.933 67.448V66.948H227.433V67.448H227.933ZM227.933 73.376H227.433V73.876H227.933V73.376ZM237.701 74.696L237.351 75.0527L237.354 75.0559L237.701 74.696ZM238.445 80.576L238.004 80.3412L238.002 80.3447L238.445 80.576ZM236.669 82.352L236.907 82.792L236.913 82.7883L236.669 82.352ZM227.933 81.512H227.433V82.012H227.933V81.512ZM235.709 81.008L235.457 80.5761L235.452 80.5793L235.709 81.008ZM236.957 79.712L237.407 79.9302L237.41 79.9249L236.957 79.712ZM237.005 76.424L236.547 76.6244L236.549 76.6298L237.005 76.424ZM235.805 75.2L235.557 75.6341L235.564 75.6383L235.572 75.6422L235.805 75.2ZM227.933 74.72V74.22H227.433V74.72H227.933ZM226.753 83V65.96H225.753V83H226.753ZM226.253 66.46H237.677V65.46H226.253V66.46ZM237.177 65.96V67.448H238.177V65.96H237.177ZM237.677 66.948H227.933V67.948H237.677V66.948ZM227.433 67.448V73.376H228.433V67.448H227.433ZM227.933 73.876H233.549V72.876H227.933V73.876ZM233.549 73.876C235.354 73.876 236.586 74.3011 237.351 75.0527L238.052 74.3393C237.025 73.3309 235.489 72.876 233.549 72.876V73.876ZM237.354 75.0559C238.14 75.8141 238.545 76.8061 238.545 78.08H239.545C239.545 76.5699 239.054 75.3059 238.048 74.3361L237.354 75.0559ZM238.545 78.08C238.545 78.9161 238.363 79.6666 238.004 80.3412L238.887 80.8108C239.328 79.9814 239.545 79.0679 239.545 78.08H238.545ZM238.002 80.3447C237.668 80.9856 237.149 81.5101 236.425 81.9157L236.913 82.7883C237.789 82.2979 238.455 81.6384 238.888 80.8073L238.002 80.3447ZM236.432 81.912C235.723 82.2945 234.819 82.5 233.693 82.5V83.5C234.936 83.5 236.015 83.2735 236.907 82.792L236.432 81.912ZM233.693 82.5H226.253V83.5H233.693V82.5ZM227.933 82.012H233.501V81.012H227.933V82.012ZM233.501 82.012C234.47 82.012 235.304 81.8343 235.966 81.4367L235.452 80.5793C234.995 80.8537 234.357 81.012 233.501 81.012V82.012ZM235.961 81.4399C236.611 81.0609 237.102 80.5593 237.407 79.9301L236.507 79.4939C236.3 79.9207 235.96 80.2831 235.457 80.5761L235.961 81.4399ZM237.41 79.9249C237.696 79.3173 237.841 78.6848 237.841 78.032H236.841C236.841 78.5312 236.731 79.0187 236.505 79.4991L237.41 79.9249ZM237.841 78.032C237.841 77.3893 237.716 76.7826 237.461 76.2182L236.549 76.6298C236.743 77.0574 236.841 77.5227 236.841 78.032H237.841ZM237.463 76.2236C237.187 75.5913 236.697 75.1055 236.039 74.7578L235.572 75.6422C236.065 75.9025 236.376 76.2327 236.547 76.6244L237.463 76.2236ZM236.053 74.7659C235.386 74.3844 234.494 74.22 233.429 74.22V75.22C234.412 75.22 235.105 75.3756 235.557 75.6341L236.053 74.7659ZM233.429 74.22H227.933V75.22H233.429V74.22ZM227.433 74.72V81.512H228.433V74.72H227.433ZM244.789 83H244.289V83.5H244.789V83ZM244.789 67.4H245.289V66.9H244.789V67.4ZM240.229 67.4H239.729V67.9H240.229V67.4ZM240.229 65.96V65.46H239.729V65.96H240.229ZM246.445 65.96H246.945V65.46H246.445V65.96ZM246.445 72.584H245.945V73.084H246.445V72.584ZM254.749 74.024L254.387 74.3684L254.39 74.3715L254.749 74.024ZM255.517 80.432L255.074 80.2013L255.072 80.2048L255.517 80.432ZM253.717 82.304L253.467 81.8715L253.717 82.304ZM246.445 81.584H245.945V82.084H246.445V81.584ZM252.781 81.056L253.042 81.4827L253.051 81.4773L252.781 81.056ZM254.029 79.64L253.577 79.4264L253.573 79.4369L254.029 79.64ZM254.077 75.944L253.61 76.1209L253.613 76.1287L253.616 76.1363L254.077 75.944ZM252.853 74.528L252.593 74.9547L252.598 74.9578L252.853 74.528ZM246.445 74V73.5H245.945V74H246.445ZM245.289 83V67.4H244.289V83H245.289ZM244.789 66.9H240.229V67.9H244.789V66.9ZM240.729 67.4V65.96H239.729V67.4H240.729ZM240.229 66.46H246.445V65.46H240.229V66.46ZM245.945 65.96V72.584H246.945V65.96H245.945ZM246.445 73.084H250.597V72.084H246.445V73.084ZM250.597 73.084C252.373 73.084 253.602 73.5423 254.387 74.3684L255.112 73.6796C254.073 72.5857 252.534 72.084 250.597 72.084V73.084ZM254.39 74.3715C255.213 75.2232 255.641 76.347 255.641 77.792H256.641C256.641 76.133 256.142 74.7448 255.109 73.6765L254.39 74.3715ZM255.641 77.792C255.641 78.677 255.45 79.4772 255.074 80.2013L255.961 80.6627C256.416 79.7868 256.641 78.827 256.641 77.792H255.641ZM255.072 80.2048C254.718 80.8986 254.188 81.4532 253.467 81.8715L253.968 82.7365C254.847 82.2268 255.517 81.5334 255.963 80.6592L255.072 80.2048ZM253.467 81.8715C252.762 82.28 251.855 82.5 250.717 82.5V83.5C251.98 83.5 253.073 83.256 253.968 82.7365L253.467 81.8715ZM250.717 82.5H244.789V83.5H250.717V82.5ZM246.445 82.084H250.525V81.084H246.445V82.084ZM250.525 82.084C251.512 82.084 252.364 81.8974 253.042 81.4826L252.521 80.6294C252.047 80.9186 251.395 81.084 250.525 81.084V82.084ZM253.051 81.4773C253.702 81.0612 254.187 80.5162 254.486 79.8431L253.573 79.4369C253.36 79.9158 253.013 80.3148 252.512 80.6347L253.051 81.4773ZM254.482 79.8535C254.786 79.2087 254.937 78.5196 254.937 77.792H253.937C253.937 78.3764 253.817 78.9193 253.577 79.4265L254.482 79.8535ZM254.937 77.792C254.937 77.0734 254.806 76.3917 254.539 75.7517L253.616 76.1363C253.829 76.6483 253.937 77.1986 253.937 77.792H254.937ZM254.545 75.7671C254.277 75.0597 253.789 74.5026 253.109 74.0982L252.598 74.9578C253.102 75.2574 253.429 75.6443 253.61 76.1209L254.545 75.7671ZM253.114 74.1014C252.43 73.6833 251.535 73.5 250.477 73.5V74.5C251.436 74.5 252.125 74.6687 252.593 74.9546L253.114 74.1014ZM250.477 73.5H246.445V74.5H250.477V73.5ZM245.945 74V81.584H246.945V74H245.945ZM270.678 81.512H271.178V81.012H270.678V81.512ZM270.678 83V83.5H271.178V83H270.678ZM259.23 83H258.73V83.5H259.23V83ZM259.23 65.96V65.46H258.73V65.96H259.23ZM270.462 65.96H270.962V65.46H270.462V65.96ZM270.462 67.448V67.948H270.962V67.448H270.462ZM260.91 67.448V66.948H260.41V67.448H260.91ZM260.91 73.592H260.41V74.092H260.91V73.592ZM269.238 73.592H269.738V73.092H269.238V73.592ZM269.238 75.008V75.508H269.738V75.008H269.238ZM260.91 75.008V74.508H260.41V75.008H260.91ZM260.91 81.512H260.41V82.012H260.91V81.512ZM270.178 81.512V83H271.178V81.512H270.178ZM270.678 82.5H259.23V83.5H270.678V82.5ZM259.73 83V65.96H258.73V83H259.73ZM259.23 66.46H270.462V65.46H259.23V66.46ZM269.962 65.96V67.448H270.962V65.96H269.962ZM270.462 66.948H260.91V67.948H270.462V66.948ZM260.41 67.448V73.592H261.41V67.448H260.41ZM260.91 74.092H269.238V73.092H260.91V74.092ZM268.738 73.592V75.008H269.738V73.592H268.738ZM269.238 74.508H260.91V75.508H269.238V74.508ZM260.41 75.008V81.512H261.41V75.008H260.41ZM260.91 82.012H270.678V81.012H260.91V82.012ZM273.855 83H273.355V83.5H273.855V83ZM273.855 65.96V65.46H273.355V65.96H273.855ZM275.535 65.96H276.035V65.46H275.535V65.96ZM275.535 73.544H275.035V74.044H275.535V73.544ZM278.103 73.544V74.044H278.348L278.499 73.8496L278.103 73.544ZM283.959 65.96V65.46H283.713L283.563 65.6544L283.959 65.96ZM285.903 65.96L286.298 66.2666L286.924 65.46H285.903V65.96ZM279.495 74.216L279.1 73.9094L278.862 74.216L279.1 74.5225L279.495 74.216ZM286.311 83V83.5H287.332L286.706 82.6935L286.311 83ZM284.247 83L283.851 83.305L284.001 83.5H284.247V83ZM278.151 75.08L278.547 74.775L278.397 74.58H278.151V75.08ZM275.535 75.08V74.58H275.035V75.08H275.535ZM275.535 83V83.5H276.035V83H275.535ZM274.355 83V65.96H273.355V83H274.355ZM273.855 66.46H275.535V65.46H273.855V66.46ZM275.035 65.96V73.544H276.035V65.96H275.035ZM275.535 74.044H278.103V73.044H275.535V74.044ZM278.499 73.8496L284.355 66.2656L283.563 65.6544L277.707 73.2384L278.499 73.8496ZM283.959 66.46H285.903V65.46H283.959V66.46ZM285.508 65.6534L279.1 73.9094L279.89 74.5226L286.298 66.2666L285.508 65.6534ZM279.1 74.5225L285.916 83.3065L286.706 82.6935L279.89 73.9095L279.1 74.5225ZM286.311 82.5H284.247V83.5H286.311V82.5ZM284.643 82.695L278.547 74.775L277.755 75.385L283.851 83.305L284.643 82.695ZM278.151 74.58H275.535V75.58H278.151V74.58ZM275.035 75.08V83H276.035V75.08H275.035ZM275.535 82.5H273.855V83.5H275.535V82.5ZM301.162 67.448V67.948H301.662V67.448H301.162ZM295.09 67.448V66.948H294.59V67.448H295.09ZM295.09 83V83.5H295.59V83H295.09ZM293.41 83H292.91V83.5H293.41V83ZM293.41 67.448H293.91V66.948H293.41V67.448ZM287.338 67.448H286.838V67.948H287.338V67.448ZM287.338 65.96V65.46H286.838V65.96H287.338ZM301.162 65.96H301.662V65.46H301.162V65.96ZM301.162 66.948H295.09V67.948H301.162V66.948ZM294.59 67.448V83H295.59V67.448H294.59ZM295.09 82.5H293.41V83.5H295.09V82.5ZM293.91 83V67.448H292.91V83H293.91ZM293.41 66.948H287.338V67.948H293.41V66.948ZM287.838 67.448V65.96H286.838V67.448H287.838ZM287.338 66.46H301.162V65.46H287.338V66.46ZM300.662 65.96V67.448H301.662V65.96H300.662ZM303.714 83H303.214V83.5H303.714V83ZM303.714 65.96V65.46H303.214V65.96H303.714ZM305.394 65.96H305.894V65.46H305.394V65.96ZM305.394 72.584H304.894V73.084H305.394V72.584ZM313.842 74.024L313.48 74.3684L313.483 74.3715L313.842 74.024ZM314.634 80.432L315.08 80.6592L315.081 80.6556L314.634 80.432ZM312.81 82.304L312.563 81.8693L312.559 81.8715L312.81 82.304ZM318.21 83H317.71V83.5H318.21V83ZM318.21 65.984V65.484H317.71V65.984H318.21ZM319.866 65.984H320.366V65.484H319.866V65.984ZM319.866 83V83.5H320.366V83H319.866ZM305.394 81.584H304.894V82.084H305.394V81.584ZM311.898 81.056L312.159 81.4827L312.167 81.4773L311.898 81.056ZM313.146 79.64L312.694 79.4264L312.689 79.4369L313.146 79.64ZM313.194 75.944L312.731 76.1319L312.733 76.1363L313.194 75.944ZM311.97 74.528L311.709 74.9546L311.97 74.528ZM305.394 74V73.5H304.894V74H305.394ZM304.214 83V65.96H303.214V83H304.214ZM303.714 66.46H305.394V65.46H303.714V66.46ZM304.894 65.96V72.584H305.894V65.96H304.894ZM305.394 73.084H309.714V72.084H305.394V73.084ZM309.714 73.084C311.472 73.084 312.694 73.5415 313.48 74.3684L314.205 73.6796C313.166 72.5865 311.636 72.084 309.714 72.084V73.084ZM313.483 74.3715C314.306 75.2232 314.734 76.347 314.734 77.792H315.734C315.734 76.133 315.234 74.7448 314.202 73.6765L313.483 74.3715ZM314.734 77.792C314.734 78.6802 314.55 79.4828 314.187 80.2084L315.081 80.6556C315.519 79.7812 315.734 78.8238 315.734 77.792H314.734ZM314.189 80.2048C313.836 80.8959 313.3 81.4503 312.563 81.8694L313.057 82.7386C313.952 82.2297 314.632 81.5361 315.08 80.6592L314.189 80.2048ZM312.559 81.8715C311.854 82.2805 310.954 82.5 309.834 82.5V83.5C311.082 83.5 312.166 83.2555 313.061 82.7365L312.559 81.8715ZM309.834 82.5H303.714V83.5H309.834V82.5ZM318.71 83V65.984H317.71V83H318.71ZM318.21 66.484H319.866V65.484H318.21V66.484ZM319.366 65.984V83H320.366V65.984H319.366ZM319.866 82.5H318.21V83.5H319.866V82.5ZM305.394 82.084H309.618V81.084H305.394V82.084ZM309.618 82.084C310.619 82.084 311.479 81.8981 312.159 81.4826L311.637 80.6294C311.165 80.9179 310.505 81.084 309.618 81.084V82.084ZM312.167 81.4773C312.819 81.0612 313.304 80.5162 313.603 79.8431L312.689 79.4369C312.476 79.9158 312.13 80.3148 311.629 80.6347L312.167 81.4773ZM313.598 79.8535C313.903 79.2087 314.054 78.5196 314.054 77.792H313.054C313.054 78.3764 312.934 78.9193 312.694 79.4265L313.598 79.8535ZM314.054 77.792C314.054 77.0734 313.922 76.3917 313.656 75.7517L312.733 76.1363C312.946 76.6483 313.054 77.1986 313.054 77.792H314.054ZM313.658 75.7561C313.375 75.0591 312.893 74.5058 312.231 74.1014L311.709 74.9546C312.2 75.2542 312.533 75.6449 312.731 76.1319L313.658 75.7561ZM312.231 74.1014C311.547 73.6833 310.652 73.5 309.594 73.5V74.5C310.552 74.5 311.242 74.6687 311.709 74.9546L312.231 74.1014ZM309.594 73.5H305.394V74.5H309.594V73.5ZM304.894 74V81.584H305.894V74H304.894Z" fill="black"/>
</svg>
