<svg width="32" height="31" viewBox="0 0 32 31" fill="none" xmlns="http://www.w3.org/2000/svg">
<g clip-path="url(#clip0)">
<path d="M31.2285 22.4595L31.2749 26.9755C31.281 27.3947 31.1963 27.8106 31.0264 28.1965C30.8565 28.5824 30.605 28.9299 30.288 29.2166C29.9711 29.5033 29.5957 29.723 29.1859 29.8615C28.7761 30 28.3409 30.0544 27.9082 30.0211C23.1069 29.5671 18.4837 28.0317 14.41 25.5381C10.6204 23.2657 7.39592 20.2149 4.96554 16.6024C2.29109 12.7024 0.605875 8.24815 0.0464117 3.60047C0.00318089 3.1846 0.050087 2.76453 0.184143 2.367C0.318199 1.96948 0.536467 1.60321 0.825052 1.29151C1.11364 0.979815 1.46621 0.729524 1.86034 0.556573C2.25446 0.383623 2.68149 0.291801 3.11424 0.286956L7.79001 0.238854C8.54633 0.223882 9.28229 0.475036 9.8607 0.945502C10.4391 1.41597 10.8205 2.07364 10.9338 2.79594C11.146 4.23912 11.5266 5.65437 12.0684 7.01468C12.2836 7.55131 12.335 8.1364 12.2165 8.70062C12.098 9.26484 11.8145 9.78453 11.3997 10.1981L9.43992 12.1303C11.6974 15.8761 14.9603 18.9632 18.8844 21.066L20.8441 19.1339C21.2637 18.7248 21.7959 18.4404 22.3775 18.3143C22.9591 18.1882 23.5658 18.2258 24.1258 18.4226C25.5451 18.9177 27.0179 19.2561 28.5162 19.4313C29.2744 19.5267 29.9697 19.8879 30.4697 20.4462C30.9698 21.0046 31.2398 21.7211 31.2285 22.4595Z" stroke="black" stroke-width="2" stroke-linecap="round" stroke-linejoin="round"/>
</g>
<defs>
<clipPath id="clip0">
<rect width="31" height="30" fill="white" transform="translate(0 0.318848) rotate(-0.58941)"/>
</clipPath>
</defs>
</svg>
