<svg width="76" height="81" viewBox="0 0 76 81" fill="none" xmlns="http://www.w3.org/2000/svg">
<path d="M1.99999 0C0.893994 0 0 0.787505 0 1.75782V79.102C0 79.7313 0.381904 80.3135 1.0039 80.6264C1.62589 80.9393 2.3898 80.9359 3.00779 80.6195L25.9998 68.8332L48.9918 80.6195C49.3018 80.7795 49.6516 80.8599 49.9996 80.8599C50.3436 80.8599 50.6877 80.7828 50.9957 80.6264C51.6177 80.3135 51.9996 79.7313 51.9996 79.102V54.7878L47.9997 57.0366V76.043L27.0076 65.2798C26.6976 65.1198 26.3478 65.0395 25.9998 65.0395C25.6518 65.0395 25.302 65.1198 24.992 65.2798L3.99997 76.043V3.51565H47.9997V19.6965L48.6911 18.1035L49.2965 17.5714C49.7365 17.1846 50.6975 16.4623 52.0035 16.0264V1.75782C52.0035 0.787505 51.1095 0 50.0036 0H1.99999ZM54.1246 19.1781C53.3246 19.1781 52.5246 19.7055 52.1246 20.057L47.3239 31.1327L33.9255 31.8365C33.1255 31.8365 32.3248 32.3625 32.1248 33.0656C31.9248 33.7687 32.1256 34.647 32.9255 34.9985L43.1247 42.3834L39.7224 53.8093C39.5224 54.5124 39.9232 55.3907 40.5232 55.7422C40.9231 55.918 41.3224 56.0924 41.7224 56.0924C42.1244 56.0924 42.5275 55.918 42.9255 55.7422L54.1246 49.4147L65.3238 55.9173C65.9238 56.4447 66.923 56.2689 67.523 55.9173C68.323 55.39 68.5237 54.6875 68.3237 53.9844L64.9253 42.5585L75.3237 35.1771C75.9237 34.6497 76.1252 33.9438 75.9252 33.2407C75.7253 32.5376 74.9245 32.0116 74.1245 32.0116L60.7222 31.3078L55.9254 20.2356C55.7254 19.7082 54.9246 19.1781 54.1246 19.1781ZM54.1246 25.8592L57.3238 33.7694C57.7238 34.2968 58.3246 34.8234 59.1246 34.8234L68.7261 35.3522L61.3238 40.6256C60.7238 40.9772 60.5261 41.6803 60.7261 42.3834L63.1246 50.4688L55.1246 45.8991C54.9246 45.7233 54.5246 45.5455 54.1246 45.5455C53.7226 45.5455 53.3254 45.724 52.9254 45.724L44.9255 50.2937L47.3239 42.2084C47.5239 41.681 47.3262 40.8021 46.7262 40.4505L39.3239 35.1771L48.9254 34.8234C49.7254 34.6477 50.3262 34.2975 50.7262 33.5943L54.1246 25.8592Z" fill="black"/>
</svg>
