<svg width="451" height="150" viewBox="0 0 451 150" fill="none" xmlns="http://www.w3.org/2000/svg">
<rect x="0.979004" width="449.505" height="150" fill="white"/>
<path d="M155.742 78.3477C155.742 79.8164 155.207 80.9609 154.137 81.7812C153.066 82.5938 151.578 83 149.672 83H142.969V66.4883H148.969C152.844 66.4883 154.781 67.8242 154.781 70.4961C154.781 71.4727 154.508 72.293 153.961 72.957C153.414 73.6211 152.641 74.0664 151.641 74.293C152.953 74.4492 153.965 74.8906 154.676 75.6172C155.387 76.3359 155.742 77.2461 155.742 78.3477ZM152.531 70.7656C152.531 69.875 152.227 69.2383 151.617 68.8555C151.008 68.4727 150.125 68.2812 148.969 68.2812H145.207V73.5078H148.969C150.164 73.5078 151.055 73.2852 151.641 72.8398C152.234 72.3867 152.531 71.6953 152.531 70.7656ZM153.48 78.1719C153.48 76.2266 152.113 75.2539 149.379 75.2539H145.207V81.207H149.555C150.922 81.207 151.918 80.9531 152.543 80.4453C153.168 79.9375 153.48 79.1797 153.48 78.1719ZM158.977 83V66.4883H171.504V68.3164H161.215V73.6133H170.801V75.418H161.215V81.1719H171.984V83H158.977ZM186.152 83V75.3477H177.223V83H174.984V66.4883H177.223V73.4727H186.152V66.4883H188.391V83H186.152ZM198.797 68.3164V83H196.57V68.3164H190.898V66.4883H204.469V68.3164H198.797ZM207 83V66.4883H209.016V77.3164C209.016 78.207 208.984 79.2773 208.922 80.5273L217.711 66.4883H220.312V83H218.32V72.0312C218.32 71.0781 218.344 70.0859 218.391 69.0547L209.695 83H207ZM233.895 68.3633H228.996L228.422 72.6758C228.023 75.7852 227.637 78.0234 227.262 79.3906C226.895 80.7578 226.43 81.7344 225.867 82.3203C225.305 82.8984 224.516 83.1875 223.5 83.1875C223.047 83.1875 222.711 83.1484 222.492 83.0703V81.2891C222.641 81.3438 222.859 81.3711 223.148 81.3711C223.562 81.3711 223.898 81.2461 224.156 80.9961C224.422 80.7383 224.668 80.3164 224.895 79.7305C225.121 79.1367 225.348 78.2617 225.574 77.1055C225.801 75.9414 226.027 74.5117 226.254 72.8164C226.48 71.1133 226.758 69.0039 227.086 66.4883H236.074V83H233.895V68.3633ZM239.156 83L243.844 75.8867C242.586 75.668 241.598 75.1406 240.879 74.3047C240.168 73.4688 239.812 72.4375 239.812 71.2109C239.812 69.7266 240.316 68.5703 241.324 67.7422C242.332 66.9062 243.77 66.4883 245.637 66.4883H253.406V83H251.168V76.1445H246.023L241.734 83H239.156ZM242.062 71.2344C242.062 72.2266 242.383 73 243.023 73.5547C243.672 74.1016 244.586 74.375 245.766 74.375H251.168V68.2812H245.859C244.633 68.2812 243.691 68.5352 243.035 69.043C242.387 69.543 242.062 70.2734 242.062 71.2344ZM272.684 81.125V87.7812H270.574V83H257.344V66.4883H259.582V81.125H268.453V66.4883H270.633V81.125H272.684ZM275.109 83V66.4883H277.125V77.3164C277.125 78.207 277.094 79.2773 277.031 80.5273L285.82 66.4883H288.422V83H286.43V72.0312C286.43 71.0781 286.453 70.0859 286.5 69.0547L277.805 83H275.109ZM291.516 83L296.203 75.8867C294.945 75.668 293.957 75.1406 293.238 74.3047C292.527 73.4688 292.172 72.4375 292.172 71.2109C292.172 69.7266 292.676 68.5703 293.684 67.7422C294.691 66.9062 296.129 66.4883 297.996 66.4883H305.766V83H303.527V76.1445H298.383L294.094 83H291.516ZM294.422 71.2344C294.422 72.2266 294.742 73 295.383 73.5547C296.031 74.1016 296.945 74.375 298.125 74.375H303.527V68.2812H298.219C296.992 68.2812 296.051 68.5352 295.395 69.043C294.746 69.543 294.422 70.2734 294.422 71.2344Z" fill="black"/>
<path d="M154.137 81.7812L154.439 82.1795L154.441 82.1781L154.137 81.7812ZM142.969 83H142.469V83.5H142.969V83ZM142.969 66.4883V65.9883H142.469V66.4883H142.969ZM151.641 74.293L151.53 73.8053L151.582 74.7895L151.641 74.293ZM154.676 75.6172L154.318 75.9669L154.32 75.9688L154.676 75.6172ZM145.207 68.2812V67.7812H144.707V68.2812H145.207ZM145.207 73.5078H144.707V74.0078H145.207V73.5078ZM151.641 72.8398L151.943 73.2379L151.944 73.2373L151.641 72.8398ZM145.207 75.2539V74.7539H144.707V75.2539H145.207ZM145.207 81.207H144.707V81.707H145.207V81.207ZM155.242 78.3477C155.242 79.6768 154.767 80.668 153.833 81.3844L154.441 82.1781C155.647 81.2538 156.242 79.956 156.242 78.3477H155.242ZM153.834 81.383C152.881 82.1069 151.513 82.5 149.672 82.5V83.5C151.643 83.5 153.252 83.0806 154.439 82.1795L153.834 81.383ZM149.672 82.5H142.969V83.5H149.672V82.5ZM143.469 83V66.4883H142.469V83H143.469ZM142.969 66.9883H148.969V65.9883H142.969V66.9883ZM148.969 66.9883C150.864 66.9883 152.197 67.3178 153.044 67.9019C153.858 68.4627 154.281 69.2987 154.281 70.4961H155.281C155.281 69.0216 154.736 67.8537 153.612 67.0786C152.521 66.3267 150.948 65.9883 148.969 65.9883V66.9883ZM154.281 70.4961C154.281 71.3733 154.038 72.0767 153.575 72.6392L154.347 73.2749C154.977 72.5093 155.281 71.572 155.281 70.4961H154.281ZM153.575 72.6392C153.111 73.2021 152.443 73.5984 151.53 73.8053L151.751 74.7806C152.838 74.5344 153.717 74.0401 154.347 73.2749L153.575 72.6392ZM151.582 74.7895C152.815 74.9363 153.708 75.3435 154.318 75.9669L155.033 75.2675C154.221 74.4377 153.091 73.9621 151.7 73.7965L151.582 74.7895ZM154.32 75.9688C154.93 76.5851 155.242 77.3648 155.242 78.3477H156.242C156.242 77.1274 155.844 76.0868 155.031 75.2656L154.32 75.9688ZM153.031 70.7656C153.031 69.75 152.674 68.9289 151.883 68.4321L151.351 69.2789C151.779 69.5477 152.031 70 152.031 70.7656H153.031ZM151.883 68.4321C151.159 67.9774 150.167 67.7812 148.969 67.7812V68.7812C150.083 68.7812 150.856 68.9679 151.351 69.2789L151.883 68.4321ZM148.969 67.7812H145.207V68.7812H148.969V67.7812ZM144.707 68.2812V73.5078H145.707V68.2812H144.707ZM145.207 74.0078H148.969V73.0078H145.207V74.0078ZM148.969 74.0078C150.21 74.0078 151.231 73.7793 151.943 73.2379L151.338 72.4418C150.879 72.791 150.118 73.0078 148.969 73.0078V74.0078ZM151.944 73.2373C152.692 72.6666 153.031 71.809 153.031 70.7656H152.031C152.031 71.5817 151.777 72.1068 151.337 72.4424L151.944 73.2373ZM153.98 78.1719C153.98 77.067 153.583 76.172 152.745 75.576C151.938 75.0022 150.79 74.7539 149.379 74.7539V75.7539C150.702 75.7539 151.605 75.992 152.165 76.3908C152.695 76.7674 152.98 77.3314 152.98 78.1719H153.98ZM149.379 74.7539H145.207V75.7539H149.379V74.7539ZM144.707 75.2539V81.207H145.707V75.2539H144.707ZM145.207 81.707H149.555V80.707H145.207V81.707ZM149.555 81.707C150.964 81.707 152.1 81.4491 152.858 80.8334L152.228 80.0573C151.736 80.4571 150.88 80.707 149.555 80.707V81.707ZM152.858 80.8334C153.629 80.2073 153.98 79.2889 153.98 78.1719H152.98C152.98 79.0705 152.707 79.6677 152.228 80.0573L152.858 80.8334ZM158.977 83H158.477V83.5H158.977V83ZM158.977 66.4883V65.9883H158.477V66.4883H158.977ZM171.504 66.4883H172.004V65.9883H171.504V66.4883ZM171.504 68.3164V68.8164H172.004V68.3164H171.504ZM161.215 68.3164V67.8164H160.715V68.3164H161.215ZM161.215 73.6133H160.715V74.1133H161.215V73.6133ZM170.801 73.6133H171.301V73.1133H170.801V73.6133ZM170.801 75.418V75.918H171.301V75.418H170.801ZM161.215 75.418V74.918H160.715V75.418H161.215ZM161.215 81.1719H160.715V81.6719H161.215V81.1719ZM171.984 81.1719H172.484V80.6719H171.984V81.1719ZM171.984 83V83.5H172.484V83H171.984ZM159.477 83V66.4883H158.477V83H159.477ZM158.977 66.9883H171.504V65.9883H158.977V66.9883ZM171.004 66.4883V68.3164H172.004V66.4883H171.004ZM171.504 67.8164H161.215V68.8164H171.504V67.8164ZM160.715 68.3164V73.6133H161.715V68.3164H160.715ZM161.215 74.1133H170.801V73.1133H161.215V74.1133ZM170.301 73.6133V75.418H171.301V73.6133H170.301ZM170.801 74.918H161.215V75.918H170.801V74.918ZM160.715 75.418V81.1719H161.715V75.418H160.715ZM161.215 81.6719H171.984V80.6719H161.215V81.6719ZM171.484 81.1719V83H172.484V81.1719H171.484ZM171.984 82.5H158.977V83.5H171.984V82.5ZM186.152 83H185.652V83.5H186.152V83ZM186.152 75.3477H186.652V74.8477H186.152V75.3477ZM177.223 75.3477V74.8477H176.723V75.3477H177.223ZM177.223 83V83.5H177.723V83H177.223ZM174.984 83H174.484V83.5H174.984V83ZM174.984 66.4883V65.9883H174.484V66.4883H174.984ZM177.223 66.4883H177.723V65.9883H177.223V66.4883ZM177.223 73.4727H176.723V73.9727H177.223V73.4727ZM186.152 73.4727V73.9727H186.652V73.4727H186.152ZM186.152 66.4883V65.9883H185.652V66.4883H186.152ZM188.391 66.4883H188.891V65.9883H188.391V66.4883ZM188.391 83V83.5H188.891V83H188.391ZM186.652 83V75.3477H185.652V83H186.652ZM186.152 74.8477H177.223V75.8477H186.152V74.8477ZM176.723 75.3477V83H177.723V75.3477H176.723ZM177.223 82.5H174.984V83.5H177.223V82.5ZM175.484 83V66.4883H174.484V83H175.484ZM174.984 66.9883H177.223V65.9883H174.984V66.9883ZM176.723 66.4883V73.4727H177.723V66.4883H176.723ZM177.223 73.9727H186.152V72.9727H177.223V73.9727ZM186.652 73.4727V66.4883H185.652V73.4727H186.652ZM186.152 66.9883H188.391V65.9883H186.152V66.9883ZM187.891 66.4883V83H188.891V66.4883H187.891ZM188.391 82.5H186.152V83.5H188.391V82.5ZM198.797 68.3164V67.8164H198.297V68.3164H198.797ZM198.797 83V83.5H199.297V83H198.797ZM196.57 83H196.07V83.5H196.57V83ZM196.57 68.3164H197.07V67.8164H196.57V68.3164ZM190.898 68.3164H190.398V68.8164H190.898V68.3164ZM190.898 66.4883V65.9883H190.398V66.4883H190.898ZM204.469 66.4883H204.969V65.9883H204.469V66.4883ZM204.469 68.3164V68.8164H204.969V68.3164H204.469ZM198.297 68.3164V83H199.297V68.3164H198.297ZM198.797 82.5H196.57V83.5H198.797V82.5ZM197.07 83V68.3164H196.07V83H197.07ZM196.57 67.8164H190.898V68.8164H196.57V67.8164ZM191.398 68.3164V66.4883H190.398V68.3164H191.398ZM190.898 66.9883H204.469V65.9883H190.898V66.9883ZM203.969 66.4883V68.3164H204.969V66.4883H203.969ZM204.469 67.8164H198.797V68.8164H204.469V67.8164ZM207 83H206.5V83.5H207V83ZM207 66.4883V65.9883H206.5V66.4883H207ZM209.016 66.4883H209.516V65.9883H209.016V66.4883ZM208.922 80.5273L208.423 80.5024L208.327 82.4205L209.346 80.7927L208.922 80.5273ZM217.711 66.4883V65.9883H217.434L217.287 66.223L217.711 66.4883ZM220.312 66.4883H220.812V65.9883H220.312V66.4883ZM220.312 83V83.5H220.812V83H220.312ZM218.32 83H217.82V83.5H218.32V83ZM218.391 69.0547L218.89 69.0774L218.977 67.1695L217.966 68.7901L218.391 69.0547ZM209.695 83V83.5H209.973L210.12 83.2646L209.695 83ZM207.5 83V66.4883H206.5V83H207.5ZM207 66.9883H209.016V65.9883H207V66.9883ZM208.516 66.4883V77.3164H209.516V66.4883H208.516ZM208.516 77.3164C208.516 78.1961 208.485 79.2577 208.423 80.5024L209.421 80.5523C209.484 79.297 209.516 78.2179 209.516 77.3164H208.516ZM209.346 80.7927L218.135 66.7536L217.287 66.223L208.498 80.262L209.346 80.7927ZM217.711 66.9883H220.312V65.9883H217.711V66.9883ZM219.812 66.4883V83H220.812V66.4883H219.812ZM220.312 82.5H218.32V83.5H220.312V82.5ZM218.82 83V72.0312H217.82V83H218.82ZM218.82 72.0312C218.82 71.0863 218.844 70.1017 218.89 69.0774L217.891 69.032C217.844 70.0702 217.82 71.07 217.82 72.0312H218.82ZM217.966 68.7901L209.271 82.7354L210.12 83.2646L218.815 69.3192L217.966 68.7901ZM209.695 82.5H207V83.5H209.695V82.5ZM233.895 68.3633H234.395V67.8633H233.895V68.3633ZM228.996 68.3633V67.8633H228.558L228.5 68.2973L228.996 68.3633ZM228.422 72.6758L227.926 72.6098L227.926 72.6122L228.422 72.6758ZM227.262 79.3906L226.78 79.2584L226.779 79.2609L227.262 79.3906ZM225.867 82.3203L226.226 82.669L226.228 82.6666L225.867 82.3203ZM222.492 83.0703H221.992V83.4227L222.324 83.5412L222.492 83.0703ZM222.492 81.2891L222.665 80.8199L221.992 80.572V81.2891H222.492ZM224.156 80.9961L224.504 81.355L224.504 81.3549L224.156 80.9961ZM224.895 79.7305L225.361 79.9108L225.362 79.9087L224.895 79.7305ZM225.574 77.1055L226.065 77.2016L226.065 77.201L225.574 77.1055ZM226.254 72.8164L226.75 72.8826L226.75 72.8823L226.254 72.8164ZM227.086 66.4883V65.9883H226.647L226.59 66.4236L227.086 66.4883ZM236.074 66.4883H236.574V65.9883H236.074V66.4883ZM236.074 83V83.5H236.574V83H236.074ZM233.895 83H233.395V83.5H233.895V83ZM233.895 67.8633H228.996V68.8633H233.895V67.8633ZM228.5 68.2973L227.926 72.6098L228.918 72.7418L229.492 68.4293L228.5 68.2973ZM227.926 72.6122C227.528 75.7193 227.145 77.9276 226.78 79.2584L227.744 79.5229C228.129 78.1193 228.519 75.851 228.918 72.7393L227.926 72.6122ZM226.779 79.2609C226.419 80.5991 225.982 81.4786 225.506 81.974L226.228 82.6666C226.877 81.9901 227.37 80.9165 227.745 79.5203L226.779 79.2609ZM225.509 81.9716C225.063 82.4294 224.418 82.6875 223.5 82.6875V83.6875C224.614 83.6875 225.546 83.3675 226.226 82.669L225.509 81.9716ZM223.5 82.6875C223.06 82.6875 222.795 82.6477 222.66 82.5994L222.324 83.5412C222.627 83.6492 223.033 83.6875 223.5 83.6875V82.6875ZM222.992 83.0703V81.2891H221.992V83.0703H222.992ZM222.319 81.7582C222.551 81.8437 222.841 81.8711 223.148 81.8711V80.8711C222.878 80.8711 222.73 80.8438 222.665 80.8199L222.319 81.7582ZM223.148 81.8711C223.671 81.8711 224.139 81.7094 224.504 81.355L223.808 80.6371C223.658 80.7828 223.454 80.8711 223.148 80.8711V81.8711ZM224.504 81.3549C224.846 81.0234 225.124 80.5234 225.361 79.9108L224.428 79.5501C224.212 80.1094 223.998 80.4532 223.808 80.6373L224.504 81.3549ZM225.362 79.9087C225.604 79.2747 225.837 78.3665 226.065 77.2016L225.084 77.0093C224.859 78.1569 224.639 78.9987 224.427 79.5522L225.362 79.9087ZM226.065 77.201C226.294 76.024 226.522 74.5839 226.749 72.8826L225.758 72.7502C225.533 74.4396 225.307 75.8588 225.083 77.0099L226.065 77.201ZM226.75 72.8823C226.976 71.1786 227.254 69.0688 227.582 66.553L226.59 66.4236C226.262 68.939 225.985 71.0479 225.758 72.7505L226.75 72.8823ZM227.086 66.9883H236.074V65.9883H227.086V66.9883ZM235.574 66.4883V83H236.574V66.4883H235.574ZM236.074 82.5H233.895V83.5H236.074V82.5ZM234.395 83V68.3633H233.395V83H234.395ZM239.156 83L238.739 82.7249L238.228 83.5H239.156V83ZM243.844 75.8867L244.261 76.1618L244.681 75.5248L243.929 75.3941L243.844 75.8867ZM240.879 74.3047L240.498 74.6286L240.5 74.6307L240.879 74.3047ZM241.324 67.7422L241.642 68.1285L241.643 68.127L241.324 67.7422ZM253.406 66.4883H253.906V65.9883H253.406V66.4883ZM253.406 83V83.5H253.906V83H253.406ZM251.168 83H250.668V83.5H251.168V83ZM251.168 76.1445H251.668V75.6445H251.168V76.1445ZM246.023 76.1445V75.6445H245.746L245.6 75.8793L246.023 76.1445ZM241.734 83V83.5H242.011L242.158 83.2652L241.734 83ZM243.023 73.5547L242.696 73.9327L242.701 73.9369L243.023 73.5547ZM251.168 74.375V74.875H251.668V74.375H251.168ZM251.168 68.2812H251.668V67.7812H251.168V68.2812ZM243.035 69.043L243.34 69.4389L243.341 69.4384L243.035 69.043ZM239.574 83.2751L244.261 76.1618L243.426 75.6116L238.739 82.7249L239.574 83.2751ZM243.929 75.3941C242.767 75.1919 241.89 74.7132 241.258 73.9787L240.5 74.6307C241.306 75.5681 242.405 76.144 243.758 76.3793L243.929 75.3941ZM241.26 73.9808C240.635 73.246 240.312 72.3337 240.312 71.2109H239.312C239.312 72.5413 239.701 73.6915 240.498 74.6286L241.26 73.9808ZM240.312 71.2109C240.312 69.853 240.766 68.8478 241.642 68.1285L241.007 67.3559C239.867 68.2928 239.312 69.6002 239.312 71.2109H240.312ZM241.643 68.127C242.53 67.3916 243.837 66.9883 245.637 66.9883V65.9883C243.702 65.9883 242.134 66.4209 241.005 67.3573L241.643 68.127ZM245.637 66.9883H253.406V65.9883H245.637V66.9883ZM252.906 66.4883V83H253.906V66.4883H252.906ZM253.406 82.5H251.168V83.5H253.406V82.5ZM251.668 83V76.1445H250.668V83H251.668ZM251.168 75.6445H246.023V76.6445H251.168V75.6445ZM245.6 75.8793L241.311 82.7348L242.158 83.2652L246.447 76.4097L245.6 75.8793ZM241.734 82.5H239.156V83.5H241.734V82.5ZM241.562 71.2344C241.562 72.3443 241.927 73.2665 242.696 73.9327L243.351 73.1767C242.839 72.7335 242.562 72.1089 242.562 71.2344H241.562ZM242.701 73.9369C243.469 74.5849 244.514 74.875 245.766 74.875V73.875C244.658 73.875 243.874 73.6182 243.346 73.1725L242.701 73.9369ZM245.766 74.875H251.168V73.875H245.766V74.875ZM251.668 74.375V68.2812H250.668V74.375H251.668ZM251.168 67.7812H245.859V68.7812H251.168V67.7812ZM245.859 67.7812C244.573 67.7812 243.506 68.0463 242.729 68.6475L243.341 69.4384C243.877 69.024 244.693 68.7812 245.859 68.7812V67.7812ZM242.73 68.647C241.936 69.2588 241.562 70.1487 241.562 71.2344H242.562C242.562 70.3982 242.837 69.8272 243.34 69.4389L242.73 68.647ZM272.684 81.125H273.184V80.625H272.684V81.125ZM272.684 87.7812V88.2812H273.184V87.7812H272.684ZM270.574 87.7812H270.074V88.2812H270.574V87.7812ZM270.574 83H271.074V82.5H270.574V83ZM257.344 83H256.844V83.5H257.344V83ZM257.344 66.4883V65.9883H256.844V66.4883H257.344ZM259.582 66.4883H260.082V65.9883H259.582V66.4883ZM259.582 81.125H259.082V81.625H259.582V81.125ZM268.453 81.125V81.625H268.953V81.125H268.453ZM268.453 66.4883V65.9883H267.953V66.4883H268.453ZM270.633 66.4883H271.133V65.9883H270.633V66.4883ZM270.633 81.125H270.133V81.625H270.633V81.125ZM272.184 81.125V87.7812H273.184V81.125H272.184ZM272.684 87.2812H270.574V88.2812H272.684V87.2812ZM271.074 87.7812V83H270.074V87.7812H271.074ZM270.574 82.5H257.344V83.5H270.574V82.5ZM257.844 83V66.4883H256.844V83H257.844ZM257.344 66.9883H259.582V65.9883H257.344V66.9883ZM259.082 66.4883V81.125H260.082V66.4883H259.082ZM259.582 81.625H268.453V80.625H259.582V81.625ZM268.953 81.125V66.4883H267.953V81.125H268.953ZM268.453 66.9883H270.633V65.9883H268.453V66.9883ZM270.133 66.4883V81.125H271.133V66.4883H270.133ZM270.633 81.625H272.684V80.625H270.633V81.625ZM275.109 83H274.609V83.5H275.109V83ZM275.109 66.4883V65.9883H274.609V66.4883H275.109ZM277.125 66.4883H277.625V65.9883H277.125V66.4883ZM277.031 80.5273L276.532 80.5024L276.436 82.4205L277.455 80.7927L277.031 80.5273ZM285.82 66.4883V65.9883H285.543L285.397 66.223L285.82 66.4883ZM288.422 66.4883H288.922V65.9883H288.422V66.4883ZM288.422 83V83.5H288.922V83H288.422ZM286.43 83H285.93V83.5H286.43V83ZM286.5 69.0547L286.999 69.0774L287.086 67.1695L286.076 68.7901L286.5 69.0547ZM277.805 83V83.5H278.082L278.229 83.2646L277.805 83ZM275.609 83V66.4883H274.609V83H275.609ZM275.109 66.9883H277.125V65.9883H275.109V66.9883ZM276.625 66.4883V77.3164H277.625V66.4883H276.625ZM276.625 77.3164C276.625 78.1961 276.594 79.2577 276.532 80.5024L277.531 80.5523C277.593 79.297 277.625 78.2179 277.625 77.3164H276.625ZM277.455 80.7927L286.244 66.7536L285.397 66.223L276.607 80.262L277.455 80.7927ZM285.82 66.9883H288.422V65.9883H285.82V66.9883ZM287.922 66.4883V83H288.922V66.4883H287.922ZM288.422 82.5H286.43V83.5H288.422V82.5ZM286.93 83V72.0312H285.93V83H286.93ZM286.93 72.0312C286.93 71.0863 286.953 70.1017 286.999 69.0774L286.001 69.032C285.953 70.0702 285.93 71.07 285.93 72.0312H286.93ZM286.076 68.7901L277.38 82.7354L278.229 83.2646L286.924 69.3192L286.076 68.7901ZM277.805 82.5H275.109V83.5H277.805V82.5ZM291.516 83L291.098 82.7249L290.587 83.5H291.516V83ZM296.203 75.8867L296.621 76.1618L297.04 75.5248L296.289 75.3941L296.203 75.8867ZM293.238 74.3047L292.857 74.6286L292.859 74.6307L293.238 74.3047ZM293.684 67.7422L294.001 68.1285L294.003 68.127L293.684 67.7422ZM305.766 66.4883H306.266V65.9883H305.766V66.4883ZM305.766 83V83.5H306.266V83H305.766ZM303.527 83H303.027V83.5H303.527V83ZM303.527 76.1445H304.027V75.6445H303.527V76.1445ZM298.383 76.1445V75.6445H298.106L297.959 75.8793L298.383 76.1445ZM294.094 83V83.5H294.371L294.518 83.2652L294.094 83ZM295.383 73.5547L295.055 73.9327L295.06 73.9369L295.383 73.5547ZM303.527 74.375V74.875H304.027V74.375H303.527ZM303.527 68.2812H304.027V67.7812H303.527V68.2812ZM295.395 69.043L295.7 69.4389L295.701 69.4384L295.395 69.043ZM291.933 83.2751L296.621 76.1618L295.786 75.6116L291.098 82.7249L291.933 83.2751ZM296.289 75.3941C295.126 75.1919 294.249 74.7132 293.617 73.9787L292.859 74.6307C293.665 75.5681 294.764 76.144 296.117 76.3793L296.289 75.3941ZM293.619 73.9808C292.994 73.246 292.672 72.3337 292.672 71.2109H291.672C291.672 72.5413 292.06 73.6915 292.857 74.6286L293.619 73.9808ZM292.672 71.2109C292.672 69.853 293.126 68.8478 294.001 68.1285L293.366 67.3559C292.226 68.2928 291.672 69.6002 291.672 71.2109H292.672ZM294.003 68.127C294.889 67.3916 296.197 66.9883 297.996 66.9883V65.9883C296.061 65.9883 294.493 66.4209 293.364 67.3573L294.003 68.127ZM297.996 66.9883H305.766V65.9883H297.996V66.9883ZM305.266 66.4883V83H306.266V66.4883H305.266ZM305.766 82.5H303.527V83.5H305.766V82.5ZM304.027 83V76.1445H303.027V83H304.027ZM303.527 75.6445H298.383V76.6445H303.527V75.6445ZM297.959 75.8793L293.67 82.7348L294.518 83.2652L298.807 76.4097L297.959 75.8793ZM294.094 82.5H291.516V83.5H294.094V82.5ZM293.922 71.2344C293.922 72.3443 294.286 73.2665 295.056 73.9327L295.71 73.1767C295.198 72.7335 294.922 72.1089 294.922 71.2344H293.922ZM295.06 73.9369C295.829 74.5849 296.873 74.875 298.125 74.875V73.875C297.018 73.875 296.234 73.6182 295.705 73.1725L295.06 73.9369ZM298.125 74.875H303.527V73.875H298.125V74.875ZM304.027 74.375V68.2812H303.027V74.375H304.027ZM303.527 67.7812H298.219V68.7812H303.527V67.7812ZM298.219 67.7812C296.932 67.7812 295.866 68.0463 295.089 68.6475L295.701 69.4384C296.236 69.024 297.052 68.7812 298.219 68.7812V67.7812ZM295.089 68.647C294.296 69.2588 293.922 70.1487 293.922 71.2344H294.922C294.922 70.3982 295.196 69.8272 295.7 69.4389L295.089 68.647Z" fill="black"/>
</svg>
